<?xml version="1.0" encoding="UTF-8"?>
<svg viewBox="0 0 591.01306 383.27197" xmlns="http://www.w3.org/2000/svg">
 <g transform="translate(-88.273 -189.2)">
  <path d="m559.76 572.33c-0.07285-0.06639-19.726-0.20988-43.674-0.31886s-48.404-0.26885-54.347-0.3552-27.11-0.23217-47.037-0.32405c-45.895-0.21157-135.91-0.71392-167.65-0.93557l-53.87-0.37095c-20.297-0.13816-29.625-0.30696-29.773-0.53871-0.11869-0.18564-0.22872-3.4204-0.24452-7.1884-0.02641-6.301-0.07924-6.92-0.6582-7.712-1.2393-1.6953-0.62363-3.2318 1.74-4.3429 1.4408-0.67721 2.3978-2.1056 2.3978-3.5786 0-0.52268-0.1649-0.57424-1.2713-0.3973-1.206 0.19285-1.2713 0.16135-1.2713-0.61314 0-0.44902 0.14302-0.90481 0.31783-1.0128 0.63257-0.39095 0.29692-1.0371-0.63565-1.2236-0.79363-0.15872-0.95345-0.34359-0.95345-1.1028 0-0.92855 0.53337-1.5828 1.843-2.2606 0.56564-0.29275 0.99216-0.29186 1.8885 0.00394 1.1102 0.36641 4.4072 0.65582 7.9502 0.69793 1.3315 0.01583 1.8312-0.13123 2.4631-0.72489 0.43601-0.4096 0.79274-0.91506 0.79274-1.1232 0-0.58737 1.2644-2.0533 1.7711-2.0533 0.24951 0 0.45366 0.21475 0.45366 0.47727s0.69576 0.9771 1.5461 1.588c1.2713 0.91335 1.6702 1.4511 2.2441 3.0251 0.38508 1.0561 0.60809 2.1977 0.49744 2.5463s-1.2989 1.472-2.6414 2.4988-2.7388 2.2054-3.103 2.6193c-0.58596 0.66599-1.7215 3.2244-1.7215 3.8785 0 0.13437 0.74904 0.20111 1.6645 0.14829 1.6502-0.09524 1.6662-0.10615 1.854-1.27 0.24615-1.5252 2.0806-3.748 4.3845-5.3125 1.8037-1.2248 1.82-1.2504 3.4669-5.4323 0.91008-2.3109 1.5733-4.3334 1.4738-4.4944s-0.81322-0.58993-1.5861-0.9532c-1.0422-0.48992-1.4052-0.84299-1.4052-1.3671 0-0.3886 0.1-0.80657 0.22222-0.9288s0.23613-7.2613 0.25312-15.865c0.02023-10.249 0.15942-16.464 0.40371-18.026 0.20506-1.311 0.53485-3.8138 0.73287-5.5618s0.63803-5.0374 0.97782-7.3099c2.5663-17.163 2.7617-18.182 3.7221-19.403 0.37409-0.47557 0.68017-1.0181 0.68017-1.2057s0.50154-0.85464 1.1145-1.4824c0.82245-0.84226 1.5839-2.345 2.9056-5.7342l1.791-4.5928 0.26208-7.3099c0.16004-4.464 0.14166-8.609-0.04723-10.647-0.17012-1.8354-0.23007-6.6266-0.13323-10.647s0.062-10.093-0.07741-13.495l-0.25348-6.1851-1.8725-0.56941c-1.0299-0.31317-2.0518-0.81465-2.271-1.1144-0.47413-0.64841-1.7362-5.6335-1.7362-6.858 0-0.71318 0.14023-0.85867 0.82763-0.85867 0.59233 0 1.3581 0.54213 2.6935 1.9069 1.0263 1.0488 1.9572 1.9069 2.0688 1.9069 0.2612 0 0.05156-1.1381-0.78506-4.2619-0.37031-1.3827-0.67328-2.9097-0.67328-3.3934 0-1.2338-1.552-2.4169-5.1468-3.9236-12.056-5.0529-13.907-5.9319-19.325-9.1802-5.4504-3.2673-6.1115-3.7778-10.25-7.914-3.3565-3.3549-3.4166-3.4408-3.4166-4.8814 0-0.80654 0.20388-1.846 0.45307-2.31 0.78699-1.4654 2.3374-4.9433 2.572-5.7698 0.26946-0.94908 1.3411-2.7778 2.132-3.6382 0.4022-0.43755 0.51508-0.90597 0.3852-1.5983-0.17197-0.91668-0.03477-1.0918 2.1426-2.7356 1.4469-1.0923 3.0454-2.7109 4.2282-4.2813 1.046-1.3888 3.3343-3.9961 5.0851-5.7941s3.4236-3.8261 3.7172-4.507c0.64441-1.4944 1.5009-2.0991 3.6156-2.5526 0.87925-0.18857 2.0215-0.60259 2.5384-0.92005 0.92791-0.5699 0.95385-0.5671 2.0522 0.22076 1.0222 0.73327 3.4961 3.5528 7.4245 8.4618 0.84967 1.0618 1.9938 2.4823 2.5426 3.1567 1.3046 1.6034 5.3707 7.4756 6.441 9.302l0.8392 1.432-0.52222 2.2832c-0.80275 3.5097-1.7098 8.5151-2.4098 13.298-0.62633 4.2795-1.3589 6.7438-2.6069 8.7692-0.71543 1.1611-1.5381 1.3668-1.5381 0.38462 0-0.68307-0.68825-2.0645-2.2105-4.4368-1.1885-1.8521-1.2405-3.3354-0.15659-4.4667l0.81108-0.84659-3.0474-4.4827c-1.6761-2.4655-3.1969-4.5751-3.3796-4.688s-1.5005-0.02992-2.9283 0.18448c-2.8066 0.42144-4.9486 1.4972-6.3886 3.2084-0.42616 0.50647-0.96958 0.92085-1.2076 0.92085s-0.99136-0.57207-1.6741-1.2713-1.4076-1.2713-1.6107-1.2713c-0.54087 0-2.0467 1.2552-2.0293 1.6916 0.00816 0.20582 1.2596 1.3457 2.7809 2.533s4.1326 3.4794 5.8029 5.0936c3.7245 3.5993 7.348 6.5841 9.0404 7.4469 0.6992 0.35644 2.1536 1.2979 3.232 2.0922s2.5443 1.7419 3.2576 2.1058c0.92619 0.4725 1.2988 0.86424 1.3033 1.3703 0.00573 0.63761 0.70712 3.4391 2.0226 8.0786 0.25718 0.90707 0.62828 3.2669 0.82467 5.244 0.39383 3.9651 0.36062 3.6921 1.0755 8.8388 0.77571 5.5845 1.2139 13.552 1.2802 23.277 0.04311 6.3245 0.16706 8.9233 0.43853 9.1948 0.92062 0.92062 15.234 0.55128 15.827-0.40839 0.27033-0.4374 2.0442-0.33135 2.2224 0.13286 0.08746 0.22792-0.2651 2.1229-0.78346 4.2111s-1.0372 4.3688-1.153 5.068-0.75868 3.4881-1.4287 6.1975-1.458 6.2127-1.7513 7.785-0.77932 3.2171-1.0802 3.6549c-0.99977 1.455-3.4367 6.1957-3.9266 7.6387-0.55485 1.6343-1.3845 12.675-1.8233 24.265-0.15964 4.2165-0.4371 8.3658-0.61658 9.2209s-0.4682 4.216-0.6416 7.4688-0.41715 6.9153-0.54168 8.1389-0.23347 4.7991-0.24211 7.9455l-0.01569 5.7208-1.5891 0.23c-0.87401 0.1265-2.2567 0.31226-3.0726 0.41282l-1.4836 0.18285 0.01386 7.6916c0.0096 5.3302 0.12355 7.7632 0.37117 7.9251 0.19653 0.12843 8.5452 0.2357 18.553 0.23836l18.195 0.00487v-0.96465c0-0.53054-0.24632-1.3406-0.54737-1.8-0.7737-1.1808-0.66076-5.85 0.21369-8.8347 0.35832-1.2231 0.6515-2.8133 0.6515-3.5339 0-1.267-0.0392-1.3166-1.1918-1.5072-0.65551-0.10835-1.6293-0.19855-2.164-0.20049s-1.2278-0.1904-1.5402-0.41885c-0.53476-0.39101-0.53832-0.51534-0.06075-2.1235 0.36081-1.215 0.50727-3.0154 0.50727-6.2358 0-5.1084-0.20243-6.9304-1.7441-15.697-1.3188-7.4994-1.6243-9.74-2.2536-16.525-1.1833-12.758-1.3798-17.264-0.76958-17.641 0.59081-0.36513 0.32281-1.0862-0.83348-2.2425l-1.1513-1.1513 0.22058-3.2293c0.28124-4.1174 0.41655-4.6595 1.163-4.6595 0.50598 0 0.60044-0.23907 0.59652-1.5096-0.00554-1.7886-1.6569-9.8379-4.45-21.691-0.70429-2.9888-0.82372-4.0443-0.49481-4.3732 0.09336-0.09336 2.2106-0.28523 4.7049-0.42638 7.2794-0.41195 11.961-1.0753 12.212-1.7304 0.09097-0.23707-0.92111-1.6672-2.2792-3.2206-5.9634-6.8211-10.786-16.035-12.696-24.256-0.2639-1.1362-0.48193-2.4772-0.48452-2.9799l-0.00469-0.91405 57.588 0.20875c31.673 0.11481 57.654 0.27497 57.735 0.35591 0.23147 0.23147-0.5411 3.5216-1.6026 6.8253-1.992 6.1994-7.1553 15.574-11.116 20.182-0.75124 0.87401-2.5736 2.8395-4.0498 4.3677s-2.607 2.8555-2.513 2.9494c0.3065 0.3065 3.8668 0.78352 5.8619 0.7854 1.0722 0.00101 4.1351-0.28979 6.8066-0.64622s5.9418-0.60671 7.2674-0.55618l2.4102 0.09187 0.09703 1.1648 0.09702 1.1648 5.3059 0.11698c2.9182 0.06434 5.6224 0.01054 6.0093-0.11956l0.70343-0.23655-0.19094-11.696c-0.16604-10.172-0.12873-11.748 0.28619-12.092 0.26241-0.21778 1.3905-0.85944 2.5068-1.4259l2.0297-1.0299-0.03949-5.1646-0.03951-5.1646h5.3844l-0.13091 1.5096c-0.072 0.8303-0.17425 1.6527-0.22722 1.8275s-0.07937 1.8462-0.05867 3.7142l0.03764 3.3964 1.6686 0.89417 1.6686 0.89418 0.08323 12.147c0.08208 11.982 0.09233 12.152 0.75217 12.505 1.077 0.5764 1.4344-0.13849 2.3149-4.6302 0.93162-4.7527 1.391-6.5108 1.8479-7.0715 0.46171-0.56668 3.5646-0.51704 4.0475 0.06473 0.34949 0.42111 1.2083 3.6955 2.3757 9.0585 0.52688 2.4203 1.0196 2.8745 3.118 2.8745 1.5196 0 1.5568-0.02387 2.1592-1.3856 1.256-2.8395 1.6695-5.2516 1.4513-8.4668-0.1127-1.6606-0.36551-3.85-0.5618-4.8653-0.54229-2.8049-0.00948-2.9515 1.7909-0.49285 0.81397 1.1116 1.9918 2.9507 2.6174 4.0869 3.1928 5.799 9.2693 15.238 9.9914 15.52 0.30431 0.11897 0.3762 1.0064 0.08155 1.0064-0.10418 0-1.2491-0.50286-2.5442-1.1175-4.5104-2.1403-8.5587-3.3144-11.47-3.3265-1.8125-0.00751-1.9698 0.47307-0.41454 1.2665 1.6532 0.84338 2.1436 1.8352 1.5801 3.1956-0.80101 1.9338-3.3662 3.7956-5.2294 3.7956-0.76919 0-1.155-0.30567-2.2064-1.748-0.43769-0.60045-0.49393-0.6055-1.0159-0.0912-0.46177 0.45502-0.49106 0.67934-0.17833 1.3657 0.52597 1.1544 0.46311 2.0803-0.21059 3.102-0.82801 1.2557-2.4374 2.3575-4.3113 2.9517-1.4741 0.46739-3.3672 2.0258-3.3672 2.7719 0 0.14944 0.50057 0.74381 1.1124 1.3208 0.78201 0.73753 1.109 1.3211 1.1011 1.965-0.02633 2.1414-2.7224 4.9276-5.2792 5.4557-1.1821 0.24414-1.2279 0.30252-1.31 1.6705-0.04684 0.77962 0.02845 2.0611 0.16731 2.8477 0.21043 1.192 0.42552 1.5121 1.2918 1.9219 1.5732 0.7443 2.862 2.1126 3.2688 3.4702 0.42001 1.4019 0.1446 3.9162-0.48632 4.4398-0.53928 0.44756-1.378 0.12786-1.6138-0.61514-0.38586-1.2157-1.1173-0.95253-3.3987 1.223-1.3887 1.3242-2.1792 2.3078-2.0382 2.536 0.29072 0.47039 11.317 0.53439 11.317 0.06569 0-0.16887-0.23922-0.80867-0.53159-1.4218-1.5447-3.2393 2.8363-4.5092 5.2568-1.5237 0.52914 0.65266 1.2507 1.5442 1.6036 1.9812l0.64148 0.79455-0.59798-2.1302c-0.40248-1.4338-0.55516-2.7845-0.46702-4.1317 0.45078-6.8902 1.5896-9.3699 5.4893-11.953 3.325-2.2026 6.3307-2.8548 10.535-2.2863 7.6363 1.0326 19.293 3.581 23.678 5.1763 0.69921 0.25441 2.5585 0.92523 4.1317 1.4907 6.4942 2.3343 14.345 6.3254 16.532 8.4043 1.7048 1.6207 1.8654 1.959 2.2146 4.6666l0.18851 1.4614 6.4236 0.20766c5.4868 0.17737 25.095 0.26057 51.316 0.21773l6.7537-0.01103-4.8e-4 -2.7809-4.8e-4 -2.7809-1.827-2.9388c-8.4824-13.644-9.5058-15.229-17.339-26.84-0.90773-1.3456-1.9364-2.5902-2.286-2.7659-0.72584-0.36479-15.805-0.64493-37.344-0.69379-7.9534-0.01804-15.069-0.10721-15.812-0.19815-1.8528-0.22679-1.72-0.87329 0.31782-1.5479 0.91771-0.30378 3.0987-1.2446 4.8468-2.0907s3.412-1.5387 3.6979-1.539c1.0143-0.00125 3.9562-1.1016 5.7839-2.1634 1.9188-1.1147 1.9804-1.2562 1.3085-3.0072-0.09744-0.25396 0.17937-0.8855 0.61514-1.4034 0.7867-0.93492 0.78857-0.95217 0.26258-2.4149l-0.52977-1.4732 0.90801-0.94776c0.94326-0.98455 0.94971-1.7895 0.01723-2.1473-0.27765-0.10655-1.4608 0.16854-2.6292 0.61133-2.9709 1.1258-3.4768 1.2043-5.051 0.78322-1.3486-0.36068-1.4105-0.34421-2.1503 0.57183-0.85764 1.062-2.0687 3.9813-2.0841 5.0237-0.01497 1.0167-0.52212 1.5277-3.3184 3.3437-3.1178 2.0247-4.856 2.8806-6.3394 3.1213l-1.1388 0.18479-1.4587-3.1404c-3.1492-6.7798-3.994-8.3596-5.1855-9.6972-0.68036-0.76379-1.3414-1.2866-1.4691-1.1618s0.01306 1.1974 0.31273 2.3836c0.80971 3.2052 1.1245 5.4284 0.91609 6.4704-0.13241 0.66196-0.92705 1.5467-2.7682 3.082-1.4204 1.1844-2.9679 2.3223-3.4389 2.5286-0.50943 0.2232-2.0217 0.33999-3.7325 0.28827-3.5446-0.10716-4.0474-0.4822-5.0646-3.7781-0.78537-2.5448-2.9431-7.0714-4.6578-9.7716-2.3918-3.7664-2.4873-4.0472-2.5713-7.5584-0.08262-3.455-0.31527-4.4636-1.7426-7.5542-1.2468-2.6997-3.0735-4.6625-5.1935-5.5804-0.96522-0.41791-1.7574-0.93493-1.7604-1.1489-0.01-0.71683 1.817-1.3588 3.8721-1.3607 2.1355-0.00189 4.2359-0.45202 4.5606-0.97738 0.48042-0.77734-2.4613-2.8328-4.0618-2.8381-1.1782-0.00391-3.5507-0.66888-4.9-1.3734-2.2261-1.1623-3.7584-3.8198-4.9786-8.6345-1.6672-6.5783-1.6534-6.9243 0.24745-6.2016 0.49139 0.18682 0.97125 0.26187 1.0664 0.16677s0.13565-1.6723 0.09009-3.5049c-0.07816-3.1445-0.04715-3.332 0.55092-3.332 0.39732 0 0.78989 0.35276 1.0523 0.9456 0.42918 0.96956 1.8398 1.7944 2.5818 1.5097 0.22877-0.0878 0.67245-1.2476 0.98595-2.5774 0.73138-3.1023 2.8333-7.4091 5.4195-11.105 3.9474-5.6405 6.074-7.0227 10.829-7.0384 1.5732-0.00522 3.2894 0.15767 3.8138 0.36196s1.311 0.45201 1.748 0.55048 1.7914 0.82519 3.0097 1.6149c1.9031 1.2337 2.4474 1.4359 3.8646 1.4359h1.6494l1.3247 2.4137c1.8027 3.2847 2.2331 4.6226 2.4479 7.6101 0.14261 1.9839 0.02485 3.285-0.52682 5.8208-0.39079 1.7962-0.61015 3.3638-0.48747 3.4836 0.37604 0.36719 2.4129-2.2115 3.4141-4.3224 0.82382-1.7368 0.93169-2.2763 0.8262-4.1317-0.101-1.7759-0.33358-2.5074-1.386-4.3588-1.5996-2.8141-1.5564-2.7015-1.0378-2.7015 0.24129 0 1.0009 0.57572 1.688 1.2794 0.94091 0.96356 1.7753 1.436 3.38 1.914 2.6468 0.78826 3.4378 1.8413 3.6836 4.9041 0.13167 1.6405 0.03407 2.2835-0.5205 3.4291-0.84801 1.7517-2.5562 2.8228-3.5311 2.2139-0.34528-0.21561-0.78-0.39202-0.96612-0.39202-0.53222 0-1.2594 2.0671-1.2594 3.5802 0 1.1864 0.17505 1.5468 1.2713 2.6173 0.69921 0.68275 1.2713 1.4704 1.2713 1.7503s-0.42906 1.1855-0.95346 2.0124-0.95347 1.9034-0.95347 2.3922c0 0.86457-0.44895 1.2605-1.9864 1.7519-0.66447 0.21237-0.70642 1.0851-0.09118 1.8972 0.50127 0.6616 0.32157 1.4788-0.32519 1.4788-0.23529 0-0.76541 0.67934-1.178 1.5096-0.45509 0.91579-1.1139 1.6861-1.6748 1.9582-0.82913 0.40225-1.1222 0.37764-2.8402-0.23843-2.6671-0.95642-3.893-0.89347-5.4914 0.28196-1.4743 1.0842-1.9184 2.0018-1.3185 2.7246 0.55078 0.66366 2.383 1.5665 4.1015 2.021 1.7623 0.46614 4.1263 1.94 5.3537 3.3379 1.646 1.8747 3.6267 6.8412 4.5972 11.527 0.31312 1.5118 1.2146 3.5972 3.0547 7.0668 1.4358 2.7072 2.672 4.9835 2.7471 5.0586 0.51404 0.51406 0.40471-0.66309-0.29792-3.2068-1.0062-3.6429-1.5108-6.4632-1.269-7.0932 0.21215-0.55285-0.08683-0.52111 4.4875-0.47649 1.9682 0.0192 3.7188-0.05175 3.8901-0.15767 0.35599-0.22-0.71662-2.48-2.2851-4.8147-1.4785-2.2008-5.8071-6.473-8.0409-7.9359-1.0471-0.68581-1.947-1.4709-1.9997-1.7447s0.18354-0.84283 0.52504-1.2646c0.93649-1.1565 3.0511-1.0701 4.8559 0.19834 1.4938 1.0498 6.195 6.209 7.5194 8.2516 1.4292 2.2044 3.5062 6.192 3.2889 6.3144-0.11467 0.0646-0.76343 0.21773-1.4417 0.34028-0.6953 0.12563-1.1112 0.34192-0.95346 0.49587 0.32471 0.31689 41.285 0.5768 41.598 0.26395 0.26433-0.26435-0.30399-1.3543-1.5054-2.887-1.0342-1.3195-1.5155-1.3352-1.2682-0.04163 0.15825 0.82783 0.13511 0.84105-1.0755 0.61487-0.68052-0.12713-1.1312-0.12429-1.0017 0.00632 0.2855 0.28773-0.33025 1.0924-0.83069 1.0856-0.19711-0.00268-0.5729-0.14675-0.8351-0.32017-0.40456-0.26755-0.35949-0.40611 0.29767-0.91523l0.77437-0.59993-2.5948-1.3046c-1.4271-0.71755-2.8125-1.3046-3.0786-1.3046-0.67895 0-0.60255-0.5497 0.13098-0.94228 1.0381-0.55556 2.3364-0.37087 4.3196 0.61449 1.8776 0.93296 3.0112 1.2006 3.0112 0.71101 0-0.13883-0.57208-0.86593-1.2713-1.6158-1.6823-1.8041-1.6547-2.2635 0.13587-2.2635 1.1724 0 1.5303 0.15417 2.1453 0.92394 0.72816 0.91145 0.78845 0.92544 4.4584 1.0347 3.9613 0.11797 4.8392 0.42567 4.1844 1.4666-0.27714 0.44063-0.91132 0.56526-3.2505 0.63882-2.2966 0.07221-2.9062 0.18887-2.9062 0.55618s0.52942 0.4648 2.5918 0.4648c2.5902 0 2.5925 7.3e-4 3.7474 1.2148 0.63557 0.66813 1.5788 2.0559 2.096 3.0839l0.9405 1.8691-0.06643 5.4973-0.06642 5.4973h7.84l0.19864-0.99319c0.32354-1.6176 0.2295-6.6905-0.27988-15.101-1.2285-20.284-1.1184-28.042 0.48192-33.96 0.66252-2.4504 0.66618-2.5522 0.10341-2.8604-0.32096-0.17577-1.5132-1.2542-2.6494-2.3964-2.0153-2.026-2.8596-2.7036-8.1044-6.504-3.0458-2.207-5.8265-4.5655-9.0938-7.7132-2.671-2.5732-6.4785-5.5857-8.7201-6.8994-1.582-0.92714-1.6588-0.92676-6.4869 0.03176-3.7077 0.73608-5.8598 0.15119-7.2506-1.9706-0.68338-1.0426-0.79423-1.0879-2.659-1.0879-1.8122 0-2.018-0.07644-2.995-1.1124-0.86482-0.91698-1.2761-1.1124-2.3417-1.1124-1.614 0-2.5638-0.85344-2.5642-2.3042-2.8e-4 -0.90639-0.19205-1.1406-1.5656-1.912-2.0848-1.1709-5.377-3.8808-6.5474-5.3894-0.51952-0.66962-1.1073-1.4019-1.3062-1.6272s-0.81334-1.2101-1.3654-2.1883c-0.73343-1.2996-0.89975-1.8428-0.61762-2.0172 0.56776-0.35087 46.461-0.15762 46.819 0.19715 0.79852 0.79139-6.0006 8.7383-7.7808 9.0944-1.1054 0.22108-1.1618 0.51926-0.30434 1.6093 0.34899 0.44369 0.78085 1.35 0.95966 2.014 0.58062 2.1562 3.6472 4.5718 9.5971 7.5596 6.7361 3.3826 11.365 5.92 13.859 7.5973 1.1049 0.74291 2.0844 1.3507 2.1768 1.3507 0.38367 0 7.097-6.4767 7.097-6.8468 0-0.22186-0.70458-0.90958-1.5657-1.5282-1.2686-0.91141-1.6504-1.4146-2.0119-2.6518-0.24536-0.83983-0.39832-1.5871-0.33991-1.6606s0.42782 0.1685 0.82096 0.53783c0.84429 0.79318 3.8242 2.2045 5.2617 2.492 0.80889 0.16177 1.013 0.09772 1.013-0.31787 0-0.32416-0.64775-0.80693-1.7174-1.28-2.3034-1.0186-6.2281-3.6056-6.2281-4.1052 0-0.58792 2.085-2.4819 4.4495-4.0419 1.1362-0.74961 2.8267-1.936 3.7566-2.6364l1.6908-1.2734 0.93048 1.0887c0.51175 0.59879 0.93083 1.191 0.93124 1.316s0.4446 0.73285 0.98712 1.3507c1.1182 1.2735 2.1419 1.4424 2.8367 0.46791 1.0754-1.508 4.254-2.7442 6.8238-2.6539 3.9082 0.13745 6.4785 1.4092 7.5924 3.7566 0.69193 1.4581 0.644 2.6013-0.1639 3.9085-0.37176 0.60153-0.55053 1.2025-0.39728 1.3356s1.704 0.48587 3.446 0.7841c3.3295 0.57 4.3014 1.0863 4.3014 2.2851 0 0.90395-3.0887 7.1161-3.6441 7.3292-0.22717 0.08717-1.2184-0.07564-2.2028-0.3618s-3.4682-0.86338-5.5196-1.2827c-3.4644-0.70813-3.7582-0.72461-4.1283-0.23158-0.2471 0.32915-0.28563 0.64368-0.10142 0.82787 0.42684 0.42684 6.8402 2.0334 9.169 2.2969l1.9726 0.22318-0.69157 1.2305c-0.38041 0.67678-0.873 1.2305-1.0947 1.2305s-2.1618-0.6161-4.3115-1.3691-4.7264-1.5614-5.726-1.7964c-1.7868-0.42004-1.8352-0.41294-2.8604 0.41892-0.57357 0.46541-2.6518 2.0952-4.6183 3.6217s-3.5755 2.8808-3.5755 3.0096c0 0.44902 2.5254 1.517 5.7796 2.4442 3.04 0.86617 5.0975 1.2512 9.9262 1.8572 1.0344 0.12983 1.9302 0.38489 1.9907 0.5668s-0.47571 1.3019-1.1916 2.4888c-1.1997 1.9891-1.2622 2.2016-0.79884 2.7136 0.68131 0.75284 0.63215 1.6769-0.13291 2.4981-0.79242 0.85055-0.79398 1.1027-0.01116 1.8111 0.38755 0.35071 0.61197 0.94222 0.5915 1.5589-0.02216 0.66788 0.3839 1.6191 1.2383 2.9007 1.311 1.9665 2.5193 4.2549 3.2722 6.1975 0.23716 0.6118 0.97332 1.981 1.636 3.0426 2.1939 3.5149 3.2332 6.4859 3.6224 10.355 0.3066 3.0479-0.75873 7.1611-3.0822 11.9-1.6695 3.4055-1.8464 3.9465-1.5473 4.7332 0.25565 0.67241 0.21993 1.2934-0.14712 2.5559-0.30003 1.0321-0.41193 2.1995-0.29354 3.063 0.16304 1.1897 0.01471 1.7571-1.0064 3.8502-0.65868 1.3502-1.091 2.5615-0.9608 2.6918s2.9324 0.28289 6.227 0.33898c7.1224 0.12124 6.4452 0.56261 7.9582-5.1871 1.7356-6.5956 3.1119-10.693 4.8904-14.559 0.4672-1.0155 1.1144-3.0591 1.4383-4.5412s0.76154-2.9027 0.97247-3.157c0.33867-0.40806 1.6637-0.88233 3.6455-1.3048 2.0831-0.4441 3.9735-0.79114 5.0839-0.93327 0.69786-0.08934 1.3847-0.27833 1.5264-0.41998 0.28906-0.28907-1.0985-3.6451-1.6474-3.9843-0.19429-0.1201-0.35317-0.4602-0.35296-0.75579 2.7e-4 -0.46675 0.3952-0.53743 3.003-0.53743 1.8547 0 3.1439 0.14102 3.3719 0.36883 1.1123 1.111 2.038 11.236 1.2807 14.007-0.39711 1.4534-0.84095 1.8173-2.6239 2.1518-0.91546 0.17175-1.2179 0.10182-1.4644-0.33854-0.25893-0.46267-0.59072-0.52183-1.9943-0.3556-0.92597 0.10967-1.8099 0.32565-1.9642 0.47997s-0.96602 2.3392-1.8038 4.8552c-1.7675 5.3081-2.2304 6.2769-4.5402 9.5008-3.099 4.3253-3.8457 6.0386-2.6318 6.0386 0.23797 0 1.0359-0.64358 1.7732-1.4302s1.5269-1.4302 1.7546-1.4302c0.48181 0 3.7018 1.7319 7.1102 3.8242 3.1852 1.9553 3.162 1.9429 7.0419 3.7768 3.5159 1.6619 11.076 4.7927 11.58 4.7958 0.15871 9.7e-4 0.80916 0.14637 1.4454 0.3231l1.1568 0.32133-0.59514 1.9122c-0.95317 3.0626-1.0682 3.1976-2.5253 2.9646l-1.2591-0.20134-0.05814 2.6626c-0.03194 1.4644-0.03344 3.0412-0.00325 3.5039 0.05915 0.90562-0.71178 1.451-1.3296 0.94066s-4.398-1.3641-4.6997-1.0624c-0.16506 0.16512 0.51904 0.9801 1.6445 1.959 1.06 0.92195 3.8169 3.6218 6.1265 5.9997 6.492 6.684 7.466 7.539 10.546 9.2575 4.1714 2.3276 4.937 3.4871 6.5194 9.8735 2.7351 11.039 4.8152 17.139 7.3412 21.528 0.85989 1.4944 1.5687 2.8038 1.5752 2.9098s0.69423 1.1591 1.5285 2.3402c2.3295 3.2981 7.1425 6.5926 9.6314 6.5926 1.1741 0 1.5851 0.17064 2.3557 0.97796l0.93348 0.97797-0.83535 0.69059c-0.45941 0.37983-1.7224 1.2279-2.8066 1.8847s-1.9167 1.3579-1.85 1.558 0.75765 0.52558 1.5354 0.7232 2.2486 0.83685 3.2685 1.4205c1.4725 0.84273 1.8209 1.1894 1.6917 1.6833-0.12608 0.48219-0.04288 0.57516 0.37035 0.41361 0.29311-0.1146 1.7249-0.33285 3.1816-0.48502s2.8154-0.41282 3.0193-0.57923c0.24251-0.19797 0.95568-0.08317 2.0627 0.33199 1.9546 0.73302 3.0374 2.1031 2.7442 3.4722-0.12432 0.58056-0.02875 0.89117 0.31461 1.0229 0.97759 0.37512 0.44687 1.1324-2.2293 3.1812-4.0768 3.121-8.9145 5.3991-14.291 6.7297-2.4411 0.60411-4.9391 1.2971-5.5511 1.5399s-1.7207 0.54277-2.4636 0.66647c-1.2073 0.20102-1.3508 0.15856-1.3508-0.39985 0-1.0599-0.97274-3.0267-2.1331-4.3129-1.2285-1.3617-2.6263-4.1171-2.6311-5.1863-0.00368-0.82258 0.78176-1.6912 1.5293-1.6913 0.29339-4e-5 1.4015 0.3112 2.4624 0.69167s2.1694 0.5995 2.4631 0.48677c0.7016-0.26926 0.72491-2.7479 0.0383-4.0756-0.44187-0.85458-0.60592-0.93521-1.5096-0.74208-0.55759 0.11919-1.1568 0.31808-1.3317 0.44203-0.66458 0.4712-4.3572 1.926-4.8886 1.926-0.59696 0-1.7206-1.783-2.0787-3.2984-0.25749-1.0896-1.9216-3.7316-3.3274-5.2828-0.55451-0.6118-1.8227-2.1817-2.8181-3.4886s-2.0278-2.6076-2.294-2.8903c-5.4257-5.7611-6.3675-7.2866-8.585-13.906-1.5363-4.5863-1.5652-5.5932-0.1625-5.6671 0.52442-0.02766 1.1323-0.06341 1.3508-0.07946 0.93322-0.06862 0.248-0.73203-1.8444-1.7857l-2.2416-1.1289 0.09632-1.4972c0.09536-1.4807 0.10944-1.4982 1.2882-1.5958 0.65551-0.05425 1.1918-0.22069 1.1918-0.36991s-0.96538-0.80958-2.1453-1.4675-3.7789-2.2434-5.7755-3.5234-3.7294-2.3272-3.8505-2.3272-1.1112 1.077-2.2001 2.3934-3.0301 3.1702-4.314 4.1196c-4.1797 3.0911-5.5179 4.6699-7.7096 9.0957-1.0917 2.2045-2.2533 4.2512-2.5814 4.5481s-1.967 0.87921-3.6421 1.294c-3.113 0.77084-6.7326 2.4484-7.3037 3.3851-0.24959 0.40935 0.29652 1.5392 2.5189 5.2114 1.5607 2.5788 3.3382 5.5227 3.95 6.542 2.0024 3.3362 4.0753 6.73 6.4273 10.523 1.272 2.0514 3.5207 5.6984 4.9971 8.1044s3.3713 5.4392 4.2111 6.7404l1.5268 2.3659v7.5548c0 7.144-0.03344 7.5727-0.61477 7.8838-0.56592 0.30288-12.126 0.4964-12.442 0.20826zm-4.7408-16.943c0-0.29538-0.57941-1.4753-1.2876-2.622-1.4754-2.3891-1.3547-2.1944-4.1948-6.7643-1.1799-1.8985-2.1453-3.5234-2.1453-3.6108s-0.1442-0.33171-0.32043-0.54284-2.5475-3.9593-5.2696-8.3294-5.1469-8.1497-5.3887-8.3992c-0.71922-0.74242-0.89383 0.29456-0.68379 4.0603 0.19473 3.491 0.94532 6.9145 2.1523 9.8166 0.59439 1.4291 0.63714 1.7966 0.30289 2.6036-0.25874 0.62461-0.69114 1.0059-1.2898 1.1374-0.49533 0.10879-1.0687 0.40036-1.2741 0.64791-0.52867 0.637-0.59007 4.4231-0.10603 6.5381 0.22467 0.9818 0.4678 2.5748 0.54023 3.5399s0.23004 1.9138 0.35018 2.1082c0.15213 0.24618 3.0095 0.35342 9.4164 0.35342 8.4235 0 9.198-0.04523 9.198-0.53709zm-58.796-1.2636c1.1251-1.7741 1.1602-2.1791 0.29818-3.4433-1.7976-2.6364-4.113-8.5833-4.113-10.564 0-0.46052 0.23-1.7544 0.51111-2.8753 0.50455-2.0119 0.50095-2.063-0.28295-3.9931-1.4563-3.5857-1.533-3.9037-1.4366-5.9541l0.09601-2.0395h1.4302c0.97155 0 1.7497-0.22788 2.4264-0.71058 1.1984-0.85484 3.9284-1.4903 5.3862-1.2537 0.74036 0.12013 1.2766-8.3e-4 1.7884-0.40338 0.40204-0.31623 1.0164-0.63354 1.3652-0.70512 0.4944-0.10141 0.61699-0.35116 0.55603-1.1327-0.09068-1.1621 0.26334-1.4672 1.6337-1.4077 1.2547 0.05447 6.0319-1.4253 6.8508-2.1222 0.58231-0.49548 0.62594-1.0474 0.70781-8.9503 0.05911-5.7071-0.02593-8.6271-0.26382-9.0579-0.19307-0.34961-0.69876-1.7798-1.1237-3.1782l-0.77265-2.5426-13.012-0.19442c-7.1563-0.10693-22.045-0.2142-33.086-0.23837l-20.075-0.04394-0.99049 1.3468c-1.167 1.5869-4.4141 4.4857-5.845 5.2181-0.55336 0.28324-2.0117 1.5321-3.2407 2.7752-2.32 2.3467-9.6487 8.8768-11.591 10.328-0.61179 0.45705-2.6141 2.0527-4.4495 3.5458-4.2996 3.4978-11.033 8.4775-15.191 11.234-1.7999 1.1934-3.511 2.5477-3.8025 3.0098-1.1584 1.8363-3.4544 4.276-6.0684 6.4479-3.8473 3.1968-5.5316 5.0901-6.5517 7.365-0.48453 1.0806-0.9863 2.1792-1.115 2.4414-0.42034 0.85611-1.113 0.67422-1.7192-0.4515-0.33717-0.62607-1.0855-1.3371-1.7284-1.6422-1.0713-0.50836-1.2269-0.50642-2.8204 0.03524-0.92759 0.31528-1.7564 0.50336-1.8418 0.41797s0.64296-2.0038 1.6186-4.2631c2.0436-4.7323 2.5036-6.01 3.0845-8.568 0.40413-1.7794 0.47029-1.8653 1.6902-2.1919 1.896-0.50762 2.8983-1.3229 2.4733-2.0119-0.51854-0.84073-3.3368-2.2849-4.4752-2.2933-1.4613-0.01074-2.0982 0.99668-3.5782 5.6595-1.1467 3.6128-1.4748 4.2715-3.1934 6.4102-2.0441 2.5438-2.9625 4.5475-3.7071 8.0877-0.54143 2.5743-0.35504 4.1803 0.72095 6.2116 0.41593 0.78524 0.75622 1.5921 0.75622 1.793 0 0.60567 1.131 0.70489 8.2633 0.72511 17.058 0.0483 73.902 0.43423 73.983 0.50228 0.04961 0.04176 8.953 0.09916 19.785 0.1276l19.695 0.05171 0.95247-1.5019zm-134.44 0.17725c0-0.19371-0.74742-1.3021-1.6609-2.4631-5.6827-7.2221-7.8636-9.9519-9.2875-11.625l-1.6054-1.8863-0.15891 2.0452c-0.0874 1.1249-0.02803 3.0842 0.13193 4.3541 0.20967 1.6645 0.17978 2.7289-0.10711 3.8138-0.45464 1.7194-0.93961 5.5188-0.7499 5.875 0.21466 0.40306 13.438 0.29103 13.438-0.11384zm-100.94-0.45655c0.92712-0.92711 1.2912-2.8589 0.82107-4.3567-0.23301-0.74243-0.54181-1.4857-0.68622-1.6518-0.46696-0.53699-0.30211-1.2705 2.4102-10.723 1.47-5.1233 3.7619-13.248 5.0932-18.055s3.1976-11.529 4.1474-14.938 1.8138-6.6997 1.92-7.3135l0.19299-1.116-2.3253-0.58491c-1.2789-0.3217-3.6125-1.1331-5.1857-1.8031s-3.1464-1.2645-3.496-1.3211c-0.42366-0.0686-0.66918-0.39351-0.7362-0.97422l-0.10057-0.87129h7.4899c8.322 0 7.9487 0.1151 6.9921-2.1555-0.2738-0.64989-1.1177-2.8263-1.8754-4.8366-1.7936-4.7586-7.6014-19.508-10.074-25.584-3.5448-8.7106-2.8361-7.6352-6.1138-9.2776-1.5904-0.79693-3.8615-2.0746-5.0468-2.8394s-2.312-1.3904-2.5036-1.3904c-0.23172 0-0.2867 0.5586-0.16422 1.6686 0.10126 0.91771 0.34896 3.8854 0.55044 6.5948 0.38387 5.1622 0.83826 8.1402 1.7119 11.22 0.5374 1.8941 0.53703 2.099-0.02118 11.732-0.16655 2.8742-0.11994 3.8388 0.20433 4.2296 0.32581 0.39257 0.40281 2.0891 0.34311 7.5592-0.05828 5.341 0.08667 8.673 0.59719 13.727 1.0971 10.862 1.6547 13.763 4.5499 23.678 1.8855 6.4566 2.4482 9.8293 1.7383 10.419-0.23353 0.19381-1.4206 0.62503-2.6378 0.95829-1.4901 0.40796-2.2471 0.77879-2.317 1.135-0.05707 0.29096 0.72954 1.6352 1.748 2.987l1.8518 2.458-0.03388 2.3698c-0.03306 2.3127-0.06168 2.3939-1.1873 3.3669-1.251 1.0814-1.9213 2.4116-2.2638 4.4924l-0.21892 1.3301 1.2163 0.12611c2.4745 0.25661 2.9297 0.22219 3.4098-0.25794zm16.931-0.14471c0.30245-2.3678 0.55709-3.0502 1.449-3.8834l0.97875-0.91428-0.72471-3.0835c-1.3569-5.7734-1.2053-13.906 0.33604-18.025 0.9631-2.5741 1.6107-2.9956 5.4234-3.5301 2.9241-0.40989 3.4283-0.40696 4.559 0.02661 2.6837 1.029 4.9666 6.3232 5.976 13.859l0.4015 2.9974h2.5215l0.2269-3.6325c0.39003-6.244 1.6739-10.734 3.6644-12.815 0.78136-0.81686 1.0095-0.87401 3.4882-0.87401 3.7592 0 4.5515 0.40519 5.7493 2.9402 1.0435 2.2087 1.7954 5.38 2.1472 9.0575 0.17981 1.8794 0.32097 2.3042 0.76576 2.3042 1.06 0 1.5922-1.0001 1.2715-2.3899-1.1727-5.0833-1.5228-15.642-0.57727-17.409 0.19883-0.37149 2.421-2.809 4.9383-5.4165s4.534-4.9288 4.4819-5.1581c-0.15687-0.68938-7.673-9.9894-8.0733-9.9894-0.2039 0-0.59291 0.33912-0.86447 0.75356-0.41277 0.62998-0.7185 0.73883-1.864 0.6638-0.75365-0.0494-4.0139-0.11979-7.245-0.1565s-6.0557-0.13618-6.2769-0.22107c-0.51032-0.19581-0.52466-1.7437-0.02082-2.2475 0.20976-0.20976 0.58076-0.38138 0.82443-0.38138 0.74843 0 7.7126-3.5253 7.5342-3.8138-0.20361-0.32945-1.3245-0.00838-3.691 1.0572-0.98127 0.44186-2.9478 1.1223-4.37 1.512-2.1649 0.59329-2.5859 0.81478-2.5859 1.3604 0 0.60442 5.6006 18.26 7.0043 22.08 0.34289 0.93325 0.62342 1.7441 0.62342 1.8019s-0.71188 0.34153-1.582 0.63052c-1.5978 0.53072-2.2319 0.45305-2.2319-0.27345 0-0.69717-7.5816-23.122-7.9794-23.601-0.43947-0.52952-3.0545-0.30419-3.6529 0.31477-0.19231 0.19892-1.1674 2.5785-2.1668 5.2879s-2.0724 5.3635-2.3844 5.8978c-1.1092 1.9002-1.1087 3.1525 0.0031 7.5147 0.56957 2.2347 0.97496 4.1198 0.90086 4.1892s-0.73834 0.20865-1.4761 0.30946c-1.3288 0.18154-1.3443 0.1722-1.6588-0.99789-0.17459-0.64966-1.2412-4.7566-2.3702-9.1267-2.7622-10.691-3.1494-12.005-3.5805-12.148-0.44475-0.1475-0.54676 0.18955-6.1295 20.252-5.7811 20.776-7.0399 25.518-6.947 26.17 0.12915 0.90639 4.6344 3.2724 7.1588 3.7595 1.0108 0.19508 2.1613 0.6467 2.5566 1.0037 0.82284 0.7431 1.4787 2.8243 1.2178 3.8641-0.09728 0.38759-0.07735 0.80421 0.04429 0.92584 0.40186 0.40189 2.1433 0.05099 2.2066-0.4446zm26.009-51.467c-2.4683-0.15402-2.8727-0.25988-2.9715-0.77767-0.10977-0.57573 0.15043-0.59353 6.591-0.45077 3.6879 0.08172 6.7947 0.23802 6.904 0.34729s0.11401 0.41942 0.0105 0.68916c-0.15677 0.40852-0.81344 0.48038-3.9326 0.43036-2.0594-0.03302-5.0301-0.14029-6.6015-0.23837zm-16.16 51.167c0.53588-1.0795 0.25109-1.3424-0.80048-0.73886-1.1524 0.66135-1.7402 0.41043-2.7367-1.1681-3.0608-4.8487-4.4032-18.71-2.2207-22.93 0.56257-1.0879 1.6837-1.6541 2.2966-1.1599 0.74702 0.6023 0.72196 0.02663-0.03437-0.78946-1.2404-1.3384-1.9488-1.3796-2.8736-0.16717-1.8724 2.4549-2.5918 9.3544-1.6487 15.812 0.61421 4.2055 1.1748 6.319 2.4006 9.0512s1.6439 3.0765 3.6087 2.9618c1.3548-0.07911 1.6865-0.22305 2.0085-0.87156zm18.417 0.13126c1.6157-2.4658 2.9836-9.0993 2.9836-14.468 0-4.6595-1.5655-11.05-3.2234-13.157-0.89255-1.1347-2.2128-1.0801-3.2342 0.13365-1.7103 2.0325-2.7678 6.9183-2.8002 12.937-0.02415 4.4843 0.35393 7.4554 1.3459 10.576 1.2217 3.8437 1.8766 4.7831 3.3351 4.7831 0.79 0 1.2026-0.20837 1.5932-0.80447zm-2.4688-0.86409c-1.9221-1.5624-2.9796-6.7812-2.7184-13.416 0.29373-7.4636 1.5735-11.968 3.4627-12.187 2.0807-0.2417 3.5523 5.2516 3.5599 13.288 0.00477 5.0934-0.39599 8.1193-1.3689 10.336-0.94924 2.1626-1.9117 2.8117-2.9352 1.9797zm2-2.1551c2.2008-4.2434 1.9108-16.9-0.49369-21.55-0.66013-1.2766-1.2283-1.0403-2.0322 0.84505-1.0667 2.5018-1.4313 5.8997-1.241 11.565 0.17322 5.1569 0.54766 7.3231 1.6262 9.4078 0.67861 1.3117 1.366 1.2256 2.1406-0.26795zm11.144 1.5402 0.09462-1.9656 1.4935-0.87597c1.6873-0.98963 3.2541-2.6228 5.2539-5.4761 0.75266-1.074 1.9898-2.5962 2.7491-3.3828 1.7908-1.855 1.9325-2.1547 3.0343-6.4155 1.1782-4.5566 1.1765-4.5525 2.1167-4.9808 2.3542-1.0726 6.0033-0.48048 7.7397 1.256 1.433 1.433 1.8486 2.7394 2.4424 7.6772 0.45468 3.7811 0.65904 4.6878 1.0566 4.6877 0.27106-1.3e-4 1.3152-0.64581 2.3203-1.4349 1.388-1.0896 1.8275-1.6333 1.8275-2.2606 0-0.73696 0.10274-0.81092 0.95346-0.68605 1.2867 0.18885 1.2218-0.28337-0.30209-2.1973l-1.2556-1.5769-0.2155-5.695c-0.18323-4.8423 0.04624-11.016 0.66645-17.931 0.03919-0.437 0.0897-1.0295 0.11224-1.3167s0.25-0.60239 0.50546-0.70041c0.31881-0.12235 1.3836 1.0381 3.3952 3.7004 3.3399 4.4201 11 14.36 14.654 19.015 1.3549 1.7262 2.5841 3.1385 2.7315 3.1385s1.0305-1.0768 1.9625-2.3929 2.4629-3.0493 3.402-3.8516c1.2639-1.0798 2.0449-2.1302 3.0062-4.043 2.5131-5.0007 4.8738-7.8283 6.5359-7.8283 1.2188 0 3.3273 2.3579 4.2485 4.7511 0.52195 1.356 1.0378 2.1346 1.6577 2.5021l0.89992 0.5334 1.3932-1.5891c2.3961-2.7331 4.6728-7.2173 9.5204-18.751 2.1732-5.1707 3.3034-7.309 5.0053-9.4698 0.52266-0.66357 0.84976-1.3072 0.72692-1.4302-0.23366-0.23404-37.866-0.62064-42.278-0.43433l-2.5384 0.1072-6.3805 6.4876c-3.5093 3.5682-6.5503 6.4876-6.7578 6.4876-0.21969 0-0.37726-0.46727-0.37726-1.1187v-1.1187l-6.7537 0.08578-6.7537 0.08577 0.11191 5.244c0.10552 4.9442-0.02341 6.4073-0.96621 10.965-0.31382 1.517-0.68888 1.9518-8.2604 9.5763l-7.9316 7.9872 0.25862 1.2296c0.14223 0.67625 0.2428 2.4858 0.22347 4.0213-0.02872 2.282-0.19712 3.1814-0.92239 4.9262-0.48799 1.174-1.0079 2.2704-1.1555 2.4364-0.31686 0.35668-0.36328 3.4698-0.05632 3.7767 0.51695 0.51697 0.71758 0.08035 0.80587-1.7538zm-30.129-0.11448c0.86648-0.8665 1.2697-3.0682 1.2779-6.9777 0.01367-6.5007-1.6112-13.682-3.6315-16.05l-0.94901-1.1124-0.62091 0.79455c-1.8454 2.3615-1.5978 12.484 0.4735 19.362 0.51219 1.7008 1.0894 2.831 2.0008 3.9179 0.57288 0.68316 0.82004 0.69428 1.4492 0.06515zm49.77-1.5371c0-0.4929-2.1695-2.2648-2.4408-1.9935-0.09585 0.09586 0.13973 0.68239 0.52353 1.3034 0.69377 1.1225 1.9172 1.5629 1.9172 0.69008zm-8.5811-0.16555c-0.78237-0.43885-2.7648-0.70283-3.6359-0.4842-1.5867 0.39826-0.77949 0.77081 1.6495 0.76128 1.5031-0.00591 2.2773-0.11388 1.9864-0.27708zm12.928-1.5306c-1.2758-2.021-3.7115-3.7506-3.7115-2.6356 0 0.31467 2.9904 3.7768 3.6288 4.2013 0.77218 0.51337 0.82027-0.39728 0.08269-1.5657zm282.61 0.00169c1.2981-0.82039 2.6255-2.1206 3.1004-3.0369 0.40394-0.77948 0.39856-0.90168-0.04715-1.0727-0.94388-0.36222-6.5113 0.87292-6.5113 1.4446 0 0.13285 0.36534 0.43707 0.81184 0.67604 0.72576 0.38841 0.78965 0.56606 0.60234 1.6748-0.20106 1.19-0.17925 1.2312 0.53888 1.0163 0.41162-0.12321 1.0889-0.43916 1.505-0.70215zm-111.99-1.6133c1.748-0.86994 4.0615-1.8998 5.1412-2.2886 2.0708-0.7458 3.4742-1.9019 3.1942-2.6315-0.09709-0.25301-1.1474-0.61463-2.5033-0.8619-1.2848-0.23429-2.4917-0.54426-2.6819-0.68884s-0.52643-0.87242-0.74716-1.6174c-0.53734-1.8134-6.3297-12.127-7.7207-13.747-0.38183-0.4447-0.86895 0.42308-0.87492 1.5585-0.00267 0.50906-0.24689 1.6932-0.54265 2.6316-0.53082 1.684-0.52872 1.7152 0.1633 2.4116 0.38561 0.38803 2.022 1.423 3.6365 2.2999 2.6382 1.4329 2.9452 1.694 3.0318 2.5785 0.0773 0.7895-0.16284 1.2539-1.2144 2.3483-0.72091 0.75031-1.8727 2.2102-2.5594 3.2442-1.1659 1.7552-1.2487 2.0331-1.2487 4.1882 0 1.2695 0.08622 2.3944 0.19157 2.4998 0.24835 0.24832 0.89537-0.01481 4.7346-1.9255zm-344.56-2.6327c0.88523-0.69631 1.0889-1.2482 0.46062-1.2482-0.43642 0-1.848 1.2561-1.848 1.6445 0 0.44056 0.5079 0.29547 1.3873-0.3963zm334.92-2.0705c-0.17026-1.4576-2.2758-7.7588-2.5926-7.7588-0.1569 0-0.32853 0.75085-0.38135 1.6686-0.09277 1.611-0.12623 1.6654-0.97008 1.5771-0.60119-0.06296-0.874 0.05543-0.874 0.37916 0 0.43023 3.1931 4.4844 3.9622 5.0306 0.59884 0.42537 0.96539 0.04138 0.85583-0.89657zm-335.06-0.34022c0.71827-0.50311 0.7259-0.54618 0.16889-0.95346-1.1618-0.8495-3.3223-0.16482-3.3223 1.0529 0 0.618 2.2294 0.54773 3.1534-0.09941zm203.96-0.16835c-0.10145-0.25353-0.17677-0.17824-0.19201 0.19203-0.0138 0.33501 0.06131 0.52275 0.16692 0.41714s0.1169-0.37974 0.02509-0.60917zm-85.426-40.77c0.71767-1.8297 1.3049-3.4744 1.3049-3.6549s-0.53632-0.32983-1.1918-0.33174-1.7256-0.09173-2.378-0.19959c-1.5637-0.25849-1.7452 0.24745-1.0754 2.9983 0.93776 3.851 1.174 4.5146 1.6073 4.5146 0.24868 0 0.97527-1.3947 1.7331-3.3267zm63.828-0.06754c0.07819-0.23414-0.38923-0.43888-1.2446-0.54512-1.7841-0.22165-12.375-0.44556-12.891-0.27256-0.2185 0.07329-0.39727 0.33253-0.39727 0.57614 0 0.35876 1.0716 0.45937 5.6413 0.52968 8.4813 0.13049 8.7544 0.12163 8.8913-0.28814zm191.54-2.8067c0.85808-0.26033 2.2187-0.4733 3.0235-0.4733 1.3983 0 1.5246-0.07853 2.8436-1.7673 0.75914-0.972 1.3253-1.8222 1.2581-1.8894-0.27149-0.27148-9.0313-0.49578-9.3963-0.24061-0.29064 0.20318-0.31137 0.56032-0.07945 1.3689 0.17254 0.60172 0.31375 1.536 0.31375 2.0761 0 0.77323 0.21192 1.4333 0.45025 1.4024l1.5866-0.47673zm-190.57-7.5448-0.09606-1.6686-7.8872-0.35031c-6.0031-0.26663-7.983-0.45642-8.2884-0.79455-1.0458-1.1579-2.0111-10.013-1.469-13.475 0.84701-5.4098 0.84063-5.493-0.61372-8.0076-1.0859-1.8777-1.4305-2.9013-1.9256-5.7208-0.38113-2.1703-1.2026-5.0127-2.2325-7.7244-0.89622-2.3598-2.0352-5.8446-2.5311-7.7441s-1.0208-3.5698-1.1666-3.712-1.1124 0.38443-2.148 1.1702-2.1606 1.6232-2.4999 1.8608c-0.49411 0.34609-0.7641 1.3699-1.3565 5.1437-0.40677 2.5914-0.97774 5.7127-1.2688 6.9363-0.40876 1.7182-0.48376 3.006-0.32942 5.6562 0.31789 5.4586 0.5668 6.2107 3.1569 9.539 1.2506 1.6071 3.6251 4.7094 5.2767 6.894s3.0876 4.0436 3.1912 4.131c0.75919 0.64021 5.6353 7.31 5.9112 8.0855 0.24543 0.69004 0.61455 1.0307 1.2713 1.1731 0.50899 0.11041 4.1151 0.21768 8.0135 0.23836l7.0881 0.03761-0.09606-1.6686zm-41.629-0.68613c8.0938-0.027 8.7046-0.06874 9.0114-0.61578 0.64345-1.1474-0.1082-1.2963-7.668-1.5187-4.1139-0.12101-7.7728-0.37697-8.4141-0.58862-1.0139-0.33461-1.1391-0.4988-1.1758-1.5417-0.32556-9.2611-0.44832-10.702-0.91191-10.702-0.66982 0-6.1606 14.408-5.7016 14.961 0.23528 0.28349 1.1333 0.34231 3.2514 0.21296 1.6095-0.09829 6.8334-0.19174 11.609-0.20767zm-25.805-4.9806c0.30985-4.2468 0.96914-19.761 1.1666-27.453l0.06494-2.5294-1.1124-0.22449c-0.61181-0.12348-2.5426-0.39349-4.2906-0.60002s-4.8229-0.80568-6.8331-1.3314c-3.9394-1.0304-5.4049-1.3463-5.3995-1.164 0.02536 0.85168 4.4408 12.361 10.225 26.654 4.8956 12.096 4.7978 11.888 5.4715 11.665 0.21254-0.07023 0.48974-2.0366 0.70714-5.0162zm7.2074 4.0777c0.92564-1.9654 5.9076-14.628 10.785-27.412 3.0183-7.9115 3.3964-9.0355 3.1006-9.2183-0.16283-0.10063-0.49652 0.2876-0.74154 0.86275s-0.95562 2.1184-1.5791 3.4294-1.4117 3.0987-1.7515 3.9728-0.79821 1.5891-1.0186 1.5891c-0.24874 0-0.67736-1.2337-1.1303-3.2534-0.8288-3.6956-1.3829-5.0337-2.0524-4.9563-0.25522 0.02949-2.1559 0.22657-4.2238 0.43794-3.3474 0.34218-3.7891 0.45828-4.0276 1.0587-0.25262 0.63612-0.69414 10.996-1.1632 27.292l-0.20811 7.2304h1.7622c1.6764 0 1.7858-0.05026 2.2486-1.0329zm262.58-1.5096c0.99658-0.93636 2.9941-3.8043 3.937-5.6526l0.66655-1.3065-0.92799-2.3097c-0.5104-1.2703-0.86149-2.4172-0.78026-2.5487s0.57466-0.15359 1.0965-0.04923l0.94874 0.18975-0.24597-1.8687c-0.38293-2.9089-0.18075-13.063 0.29984-15.058 0.3489-1.4483 0.62042-1.8773 1.5838-2.5019 0.9258-0.60025 1.2377-1.0665 1.5308-2.2884 0.52368-2.1829 0.84058-2.3498 3.0628-1.6131 4.3304 1.4356 5.3121 1.1123 1.7784-0.58578-2.9693-1.4268-7.5545-3.1811-8.3146-3.1811-0.36229 0-1.0044 0.50805-1.5062 1.1918-0.48118 0.6555-1.7398 2.06-2.7971 3.1211s-3.0057 3.0642-4.3299 4.4513c-3.1148 3.2629-7.52 5.5769-8.7203 4.5808-0.81591-0.67714-0.52742-1.225 1.2754-2.422 0.9614-0.63833 1.748-1.2834 1.748-1.4334s-0.69374-0.27282-1.5417-0.27282c-1.8145 0-3.422-0.49648-3.666-1.1322-0.17366-0.45255 0.04898-0.73319 1.2307-1.5514 0.61619-0.42664 0.61718-0.45292 0.04091-1.0897-1.1639-1.2861 0.39219-2.2466 1.8515-1.1428 1.0856 0.82114 1.5365 0.60448 0.98035-0.47105-0.26669-0.51572-0.4849-1.3023-0.4849-1.748 0-0.79616-0.04148-0.81033-2.3714-0.81033h-2.3714l-0.33402 1.3507c-0.18374 0.7429-0.54195 2.1373-0.79605 3.0987s-0.67327 2.8206-0.9314 4.1317-0.70464 3.4563-0.99214 4.7673c-0.56979 2.5979-0.45906 5.0119 0.27816 6.0644 0.25076 0.35803 0.38357 0.92775 0.29509 1.266-0.10049 0.38438 0.00207 0.61882 0.27352 0.62506 0.58714 0.0135 1.4146 1.2077 1.6828 2.4285 0.19409 0.88368 0.10694 1.0658-0.75285 1.5737-1.2144 0.71737-1.2205 0.94386-0.03195 1.1816l0.9404 0.18807-0.06639 2.7915c-0.03649 1.5353 0.14464 4.1971 0.40252 5.915l0.46888 3.1236 7.3721-0.10428c7.3613-0.10412 7.3734-0.10544 8.2177-0.89882zm15.731-4.7673c0-0.17479-0.14304-0.31782-0.31787-0.31782s-0.31781 0.14303-0.31781 0.31782 0.14304 0.31782 0.31781 0.31782 0.31787-0.14302 0.31787-0.31782zm-209.74-9.774c4.8373-4.9297 12.714-13.184 19.476-20.408 2.3837-2.5469 2.7208-3.0356 2.2247-3.2246-0.53994-0.20578-19.329-0.46141-29.933-0.40724-3.5574 0.01817-4.6205 0.12169-4.8419 0.47143-0.44145 0.69734-0.3439 2.4162 0.2109 3.716 0.27739 0.64989 1.0605 2.8497 1.7403 4.8884s1.6818 4.8276 2.2267 6.1975c2.1401 5.3805 2.8385 8.1234 2.8385 11.147 0 2.3573 0.12523 2.9439 0.62851 2.9439 0.11261 0 2.5558-2.396 5.4294-5.3245zm125.77-31.145c0.05333-1.3157-0.0367-2.3042-0.20986-2.3042-0.45702 0-2.9568 4.105-2.7266 4.4774 0.11 0.17798 0.79471 0.28026 1.5216 0.22729l1.3216-0.0963 0.09337-2.3042zm-170.61-3.2261c6.1757-4.9563 13.941-13.997 14.523-16.908 0.17113-0.85565 0.11507-0.92134-0.78622-0.92134-1.1981 0-1.6666 0.45534-2.9543 2.8714-1.4148 2.6545-5.2314 7.1235-9.9814 11.688-2.7043 2.5985-3.9773 4.036-3.8554 4.3538 0.30624 0.79805 1.0298 0.54145 3.054-1.0831zm-210.21 109.56c-0.33831-0.19631-1.4717-1.0472-2.5187-1.8909-1.1782-0.94939-2.5536-1.7229-3.6092-2.0298-2.2481-0.65353-3.8186-2.1172-6.3057-5.8772-2.9188-4.4125-3.1954-5.5546-1.5292-6.3138 1.1173-0.50905 1.8764-0.44479 3.2952 0.27908 1.2415 0.63338 2.6754 0.80863 3.6272 0.44339 0.45036-0.17283 0.44525-0.28661-0.05048-1.1258-0.48313-0.81788-0.49276-0.97063-0.07773-1.2327 0.26056-0.1645 0.95417-0.21113 1.5414-0.10358 0.9898 0.18129 1.0514 0.14449 0.84536-0.50476-0.14864-0.46834-0.03855-0.9033 0.33236-1.3132 1.2866-1.4216 2.6809-0.29283 2.6809 2.1704 0 1.0703 0.17487 1.7957 0.51486 2.1357 0.58255 0.58256 1.7099 3.9586 1.7099 5.1207 0 1.2453 0.9661 1.9151 3.0814 2.1362 1.0512 0.10987 2.2963 0.34614 2.7668 0.52504 0.77901 0.29621 0.83733 0.43217 0.65171 1.5194-0.39429 2.3092-0.86227 3.1851-2.1076 3.9445-0.67249 0.41009-1.6756 1.1389-2.2292 1.6196-1.0877 0.94456-1.6615 1.0536-2.6194 0.49777zm-2.9443-18.585c-0.08993-0.23436-0.29123-0.4261-0.44733-0.4261-0.33203 0-0.3838 1.0654-0.06716 1.382 0.30674 0.30673 0.71087-0.44412 0.51449-0.95591zm23.264-8.3495c-3.1555-1.0888-6.5189-2.8858-9.9888-5.3366-0.26872-0.1898 0.93997-2.3366 1.4191-2.5204 0.26897-0.10323 0.73399 0.02543 1.0334 0.28588 0.9177 0.7983 7.7518 4.2674 9.5454 4.8454 0.93017 0.29974 1.765 0.73725 1.8552 0.97221s-0.09389 0.86365-0.40901 1.3971c-0.65456 1.1081-1.1335 1.1575-3.4552 0.35637zm2.5359-3.7883c-0.17116-0.15878-0.88328-0.46894-1.5825-0.68925-1.6008-0.50438-7.442-3.3952-8.1827-4.0496-0.42103-0.37198-0.46919-0.59385-0.19945-0.91888 0.51591-0.62162 0.69098-0.56944 3.223 0.96077 1.2643 0.76407 3.3714 1.8422 4.6824 2.3959 3.1099 1.3134 3.3371 1.4472 3.3371 1.9659s-0.83864 0.74268-1.2779 0.3352zm34.066-1.213c-0.11653-0.11651-0.21188-0.60834-0.21188-1.0929 0-0.81063 0.12063-0.89727 1.5096-1.0843 1.5936-0.21466 7.2632-2.0562 9.5197-3.0922 1.551-0.71205 1.8762-0.60033 2.0686 0.71058 0.25198 1.7168-1.2419 2.4659-7.6698 3.846-4.6498 0.99827-4.897 1.0321-5.2162 0.71284zm-35.061-3.4151c-1.2364-0.54443-2.4464-1.1321-2.689-1.306s-0.96784-0.58266-1.6117-0.90846-1.6364-0.98111-2.2056-1.4563c-1.0326-0.86206-1.0338-0.86641-0.52553-1.9477 0.28017-0.59607 0.74841-1.9418 1.0405-2.9906 0.64502-2.3157 1.5515-4.8455 2.417-6.7455 0.41929-0.92039 0.65919-2.1567 0.68552-3.5327 0.03764-1.9668 0.13758-2.2486 1.41-3.9767 0.89371-1.2138 1.5933-2.6491 2.0138-4.1317 0.35437-1.2495 1.1049-3.7612 1.6679-5.5817s1.0236-3.4475 1.0236-3.6157-0.85812-0.90733-1.9069-1.6426c-2.2934-1.6079-2.4447-2.3056-0.63564-2.9308 0.6992-0.24167 1.5478-0.71531 1.8857-1.0525 0.7237-0.72215 0.72117-0.7234-2.5283-1.2568-2.78-0.45633-3.3088-0.74296-2.7994-1.5173 1.5235-2.3158 5.8256-9.6753 5.8256-9.9657 0-0.22255-0.21332-0.26978-0.55619-0.12315-0.3059 0.13083-0.94601 0.30487-1.4225 0.38677-0.93329 0.16041-1.5785 1.0289-4.715 6.3469-1.4105 2.3916-1.8692 2.9325-2.4931 2.9398-0.69675 0.00822-2.7446-1.2586-3.2626-2.0182-0.11731-0.17204 0.39672-1.1807 1.1423-2.2415s1.9058-2.8339 2.5782-3.9403c1.0547-1.7353 1.1686-2.0981 0.82899-2.6419-0.58454-0.93598-0.22671-1.5827 1.5413-2.7856 0.87518-0.59546 1.5912-1.223 1.5912-1.3946 0-0.36918-3.9433-0.02952-4.7655 0.41047-0.47098 0.25206-1.9006 2.5307-5.2349 8.3438-0.47625 0.8303-1.0118 1.5096-1.1901 1.5096-0.45517 0-3.7368-3.2559-3.7424-3.7131-0.00522-0.42415 1.1547-2.3549 7.4112-12.337 5.1256-8.1775 6.8164-10.932 10.926-17.798 0.41851-0.6992 1.0751-1.7868 1.4592-2.4168s1.2675-2.1015 1.9633-3.27c0.75514-1.2681 1.5367-2.1926 1.939-2.2936 0.70028-0.17576 4.4403 0.40045 5.1397 0.79186 0.29121 0.16296 0.06677 0.73776-0.82665 2.117-4.6468 7.1738-12.584 20.136-12.701 20.742-0.1354 0.7013-0.06739 0.72888 1.5675 0.63564l1.709-0.09747-0.10318-1.1846c-0.15226-1.748 0.16911-2.4704 1.099-2.4704 0.43672 0 1.0881 0.15737 1.4475 0.34973 0.52472 0.28081 0.76437 0.23384 1.2163-0.23837 0.62979-0.65802 9.4381-14.583 10.323-16.32 0.78585-1.5422 1.0344-1.6238 2.3099-0.75821 0.61452 0.41701 1.2307 0.75821 1.3694 0.75821s0.34343 0.28789 0.4551 0.63975c0.19432 0.61224-0.89796 2.4584-7.4031 12.512-3.1213 4.8242-4.5151 7.3169-4.2433 7.5887 0.15488 0.15488 0.7646 0.23543 1.3549 0.179 1.0309-0.09855 1.2683-0.41383 5.9995-7.967 2.7094-4.3254 5.1698-8.2942 5.4676-8.8195s0.78318-0.95516 1.0787-0.95516c0.62938 0 2.3303 1.8149 3.4954 3.7296l0.81898 1.3459-1.537 2.3994c-3.2936 5.1414-4.8757 7.8387-4.7331 8.0694 0.08183 0.13241 0.59496 0.17525 1.1403 0.09521 1.1177-0.16404 2.2958-1.7705 3.5449-4.8336 0.39202-0.96141 1.1884-2.6061 1.7697-3.6549s1.4888-2.7902 2.0168-3.8698l0.95984-1.9629-0.73405-1.6921c-1.0648-2.4545-0.99981-4.5904 0.18261-6.0012 1.811-2.1609 5.0498-3.7638 6.7452-3.3383 1.287 0.32301 2.8411 2.131 3.2592 3.7918 0.74088 2.9423 0.40425 5.498-1.3242 10.053-0.43112 1.1362-1.1526 3.0344-1.6034 4.2183-1.0367 2.7229-2.673 5.6534-4.8547 8.6942-0.93977 1.3098-1.7087 2.5042-1.7087 2.6542s0.70842 0.59279 1.5743 0.9841 1.6466 0.90009 1.7351 1.1306-0.03729 1.0775-0.27945 1.8821c-0.43935 1.4598-0.43807 1.4654 0.60523 2.6296 2.2026 2.4578 2.8546 4.9697 2.6584 10.24-0.113 3.0349-0.30375 4.1303-1.1487 6.5971-0.55725 1.6268-1.0132 3.0955-1.0132 3.2637s0.3388 0.22076 0.75291 0.11683c0.62091-0.15584 0.77979-0.04834 0.90626 0.61322 0.08434 0.4412-0.00419 0.96148-0.19673 1.1562-0.25544 0.25829-0.19973 0.43882 0.20611 0.6678 0.37688 0.21265 0.55619 0.70269 0.55619 1.52 0 1.2868-0.56251 2.0151-1.8629 2.4122-0.67105 0.2049-0.72954 0.36017-0.55257 1.4669 0.10886 0.68076 0.53013 1.989 0.93617 2.9072s1.2627 3.2427 1.9037 5.1655c1.0644 3.193 1.3514 3.707 3.3104 5.9302 1.1797 1.3388 2.6904 2.8991 3.3571 3.4674 1.43 1.2188 2.7541 3.6675 2.8507 5.2718l0.06872 1.1409-3.0193 1.054c-4.0149 1.4015-7.3541 2.1836-8.3047 1.945-0.58596-0.14709-0.86452-0.53187-1.1455-1.5824-0.20419-0.76343-0.91524-2.0464-1.5801-2.8509s-1.6264-2.2609-2.1367-3.2363c-0.88746-1.6963-1.2291-2.1442-3.7077-4.861-0.59886-0.65642-1.5842-1.8371-2.1896-2.6237s-1.1824-1.5017-1.2822-1.5891c-0.32717-0.28664-2.8543-4.4279-2.8559-4.68-8.7e-4 -0.13539-0.35595-0.67521-0.78907-1.1996l-0.78749-0.95346-0.64071 0.79455c-0.35239 0.43701-1.0908 1.5812-1.6408 2.5426-1.142 1.996-4.0296 5.5967-5.9898 7.4688-1.7279 1.6502-3.7433 5.6554-4.2972 8.5395-0.61748 3.2153-2.3218 7.7389-2.9807 7.9112-0.29517 0.0772-1.5483-0.30507-2.7846-0.8495zm8.8112-44.281c0.28809-0.30768 1.5942-2.3472 2.9024-4.5322s3.3304-5.5213 4.4939-7.4139 2.1154-3.5731 2.1154-3.7344-0.77448-0.29324-1.7211-0.29324h-1.7211l-1.6955 2.7008c-1.6439 2.6187-4.0465 6.6068-6.6682 11.069-0.70098 1.193-1.2032 2.3549-1.1161 2.582 0.22926 0.59743 2.7596 0.3171 3.4103-0.37783zm12.944-6.3968c1.1715-1.2004 2.7641-3.292 3.5393-4.6481 1.3857-2.4243 2.9281-6.4419 2.657-6.9209-0.35354-0.62451-2.1192 1.3456-4.1297 4.608-2.9664 4.8133-4.7858 7.9138-5.0393 8.5873-0.46373 1.2321 0.92412 0.47287 2.9728-1.6263zm-23.085-12.628c0.85807-0.53031-0.16981-1.3812-1.6838-1.3939-0.58107-0.00485-1.6672 1.4498-1.4024 1.8782 0.1581 0.25582 2.4775-0.10818 3.0861-0.48433zm35.912 62.936c0.08398-0.43611 0.61982-0.6857 2.1271-0.99077 2.3274-0.47105 5.2034-1.337 7.6076-2.2908 1.8656-0.74002 2.6102-0.83434 2.6102-0.33063 0 0.83669-7.0205 3.3798-10.962 3.9709-1.3418 0.20121-1.4837 0.16438-1.383-0.35872zm217.03-35.501c-0.43175-0.21848-1.1111-0.8811-1.5096-1.4725-1.2765-1.8942-0.77582-4.3543 1.1679-5.7384 1.977-1.4077 4.6964 0.37139 5.0081 3.2764 0.16542 1.5413-0.56402 3.5235-1.4763 4.0117-0.8263 0.44222-2.2306 0.40819-3.1901-0.0773zm3.059-8.7558c-1.0466-1.1565-0.46448-2.9148 1.7662-5.3348 1.5998-1.7356 2.6701-1.8504 3.8771-0.416 1.5268 1.8145 0.90903 4.8128-1.1976 5.8124-1.5046 0.71398-3.7722 0.68256-4.4456-0.06162zm25.231-2.4214c-0.21002-0.25305-0.44883-0.93239-0.5307-1.5096s-0.205-1.2177-0.27365-1.4231c-0.2443-0.73131 0.49266-2.5723 1.4168-3.5394 1.4084-1.4738 4.4666-2.1217 4.4547-0.94378-0.00226 0.22398-0.28267 1.2958-0.62315 2.3818-1.3719 4.376-3.2369 6.4886-4.444 5.0341zm-13.166-1.2786c-2.4641-0.86948-3.7643-1.8943-3.6263-2.8581 0.25115-1.7542 8.003-1.0003 9.2251 0.89712 0.41546 0.64503 0.25775 1.681-0.33798 2.2202-0.81862 0.74084-2.6878 0.64875-5.2609-0.25919zm7.1289-3.2697c-2.4418-1.2322-2.7835-4.1221-0.62537-5.2888 1.3249-0.71622 3.1495-0.51158 4.1236 0.46245 0.80583 0.80586 0.83765 3.3353 0.05467 4.346-0.74775 0.96522-2.2022 1.1618-3.5529 0.48029zm-15.387-1.4069c-1.5357-0.85943 0.7077-3.8872 3.5751-4.825 2.616-0.85563 3.4693-0.61982 3.0988 0.85635-0.52766 2.1024-5.1244 4.8358-6.6739 3.9687zm21.799-3.2963c-0.47981-0.33607-0.70597-0.82028-0.70518-1.5096 0.0015-1.2706 1.0765-3.0836 1.8216-3.0721 0.67149 0.01029 2.9445 2.0496 2.9445 2.6418 0 0.68526-2.2179 2.4348-3.0866 2.4348-0.14737 0-0.58583-0.22264-0.97434-0.49475zm-299.38-1.9755c0.08102-0.30983 1.123-2.0618 2.3155-3.8933s3.4794-5.4753 5.082-8.0973c12.278-20.087 13.15-21.453 13.702-21.453 0.24167 0 0.4394 0.13131 0.4394 0.29181s-1.1152 2.0555-2.4783 4.2111c-2.6555 4.1996-6.4637 10.369-7.5818 12.283-0.37641 0.64423-1.6211 2.673-2.7659 4.5084s-2.756 4.4813-3.5804 5.8797c-2.8348 4.8086-4.2462 6.8331-4.7636 6.8331-0.33733 0-0.4649-0.19497-0.36857-0.56331zm288.3-0.23358c-1.791-1.0736-2.2599-2.3821-1.2672-3.5362l0.71821-0.83497 1.4678 0.64928c2.4269 1.0735 3.0432 3.2119 1.2087 4.1937-0.76795 0.411-0.58842 0.45081-2.1276-0.47178zm191.33-1.4249c-2.678-0.90913-5.8399-2.2832-8.0613-3.503-2.0102-1.1039-6.085-3.2747-9.055-4.8239s-5.5903-3.007-5.8227-3.2394c-0.35168-0.35166-0.11334-0.69836 1.4189-2.064 1.0129-0.90276 2.0197-1.573 2.2374-1.4895s2.6527 1.6345 5.4114 3.4465 5.8022 3.6224 6.7636 4.023 1.891 0.8408 2.0658 0.9783c0.89082 0.70068 6.3785 3.39 8.894 4.3587 1.5759 0.60687 2.9154 1.1509 2.9765 1.2089 0.17002 0.16145-0.60768 2.3673-0.85088 2.4134-1.1248 0.21348-2.1626-0.01375-5.9776-1.3089zm-185.31 0.28646c-1.2519-0.3697-2.7218-2.2006-2.5785-3.2118 0.09288-0.65516 0.26204-0.72725 1.6009-0.6822 1.71 0.05754 5.0183 1.4429 5.0183 2.1014 0 0.62535-1.2882 1.7453-2.2247 1.934-0.437 0.0881-1.2542 0.02444-1.8159-0.14145zm190.23-3.1605c-0.93439-0.47203-2.6285-1.386-3.7647-2.031s-2.7094-1.4682-3.496-1.8294-1.6447-0.83763-1.9069-1.0587-1.2633-0.80451-2.2247-1.2965c-2.088-1.0684-8.1732-5.2409-9.9237-6.8044l-1.2454-1.1124 1.3069-1.269c0.83717-0.81286 1.388-1.1418 1.5324-0.91512 0.12395 0.19464 1.2265 0.95988 2.4501 1.7005s2.5108 1.5996 2.8604 1.9086c1.8476 1.6336 9.467 6.3579 13.428 8.3258l4.5289 2.2502v1.191c0 2.0369-0.90122 2.2759-3.5452 0.94029zm-6.943-5.71c0-0.1748-0.15146-0.31782-0.33653-0.31782s-0.24821 0.14302-0.14016 0.31782 0.25947 0.31782 0.33654 0.31782 0.14015-0.14302 0.14015-0.31782zm-478.11 3.4166c-0.11752-1.009-0.01862-2.4213 0.25019-3.5728 0.24449-1.0474 0.41951-1.9112 0.38893-1.9197-1.6037-0.44357-1.9714-0.71435-2.0645-1.5203-0.0566-0.49006 0.19142-1.3804 0.55724-2.0005 0.42673-0.72325 0.59067-1.3906 0.46483-1.8919-0.33524-1.3357 0.12885-2.3085 1.4654-3.0718 1.4523-0.82935 1.5249-1.049 0.59512-1.8019-1.6375-1.326 0.6949-3.9431 3.3293-3.7357 2.3263 0.1832 2.2889 0.76378-0.26891 4.1798-1.4593 1.9489-2.4317 3.757-3.2158 5.9795-0.49277 1.3967-0.58031 2.7605-0.17719 2.7605 0.3048 0 0.74374-0.66674 6.3817-9.6935 4.3847-7.0202 5.1978-7.9196 8.0799-8.9364 2.2767-0.80327 2.2912-0.86616-1.0718 4.6391-9.0119 14.753-13.818 22.254-14.258 22.254-0.14422 0-0.34967-0.75085-0.45654-1.6686zm486.85-2.2702c-3.56-1.8948-6.9568-4.0559-11.759-7.4818-2.2724-1.621-4.7005-3.238-5.3958-3.5933-2.104-1.0752-3.6621-2.2082-3.6621-2.6629 0-0.2365 0.54496-0.79063 1.211-1.2314l1.211-0.80142 2.8412 1.2351c2.6293 1.143 5.275 2.6422 9.6743 5.482 2.8232 1.8224 6.6825 4.1362 8.8423 5.3012 1.105 0.59607 2.0802 1.2692 2.1672 1.4958 0.15717 0.40955-1.9802 3.6725-2.3788 3.6314-0.11472-0.01181-1.3527-0.63044-2.7511-1.3747zm1.748-6.4369c-1.6606-0.95753-5.0478-3.0976-7.527-4.7556s-5.6971-3.5247-7.151-4.1481-2.7627-1.2438-2.9087-1.3786-0.03872-0.68356 0.23834-1.2194c0.66602-1.2879 0.63541-1.6414-0.14181-1.6414-0.97066 0-1.0837-0.73199-0.66682-4.3184 0.29626-2.5485 0.29535-4.0669-0.00416-6.8662-0.21152-1.9767-0.39515-4.0231-0.408-4.5475l-0.02341-0.95346h5.0591l0.41573 1.9069c0.70426 3.2303 0.63328 7.9242-0.15717 10.398-0.85173 2.6658-1.5036 3.9418-2.2189 4.3433-0.73386 0.41197-0.72304 0.41521 5.4824 1.6486 2.7968 0.55587 5.3712 1.1593 5.7208 1.3409s1.9228 1.285 3.496 2.4518 3.7542 2.6066 4.8467 3.1994c1.1964 0.64913 1.9864 1.286 1.9864 1.6013 0 1.3138-1.934 4.7565-2.6437 4.706-0.20661-0.01471-1.7343-0.81019-3.3949-1.7677zm42.295-0.38328c-0.28485-0.53229 0.13664-1.0348 3.2402-3.8629 1.9623-1.788 3.6102-3.3614 3.662-3.4963 0.15418-0.40139-2.0099-1.5868-2.897-1.5868-0.85919 0-5.1653 1.4956-8.9566 3.1108l-4.9262 2.0884c-1.4858 0.62732-4.028 1.4488-5.6494 1.8256-2.8762 0.66837-3.0027 0.67168-5.206 0.13616-1.6994-0.41302-2.3154-0.45626-2.4894-0.17469-0.16795 0.27173-0.83098 0.3005-2.4216 0.1051l-2.1904-0.26906 0.07067-1.1928c0.03893-0.65601 0.4168-2.1879 0.83978-3.4042 0.85056-2.4456 3.5524-7.2744 4.2119-7.5275 0.23147-0.08883 0.79712 0.13446 1.257 0.4962s1.3222 0.74889 1.9163 0.86034c1.0637 0.19955 1.207 0.3916 1.0986 1.472-0.09931 0.98912 1.4503 1.0296 5.0329 0.13134 1.854-0.46482 4.801-1.1151 6.5491-1.4451s4.9659-1.205 7.1509-1.9445 5.0922-1.6121 6.4606-1.939 3.1561-0.98727 3.9728-1.4674c1.3877-0.81579 1.7381-0.87515 5.3547-0.90716l3.8698-0.03424 3.6766-3.4618c2.0221-1.904 3.6671-3.5333 3.6554-3.6207s-0.88986-0.91192-1.9517-1.8323c-2.8509-2.4712-8.7628-5.2719-12.643-5.9896-3.2301-0.59744-3.2298-0.5973-6.5499-3.4079-2.7506-2.3285-5.432-3.7111-7.6388-3.9389-1.8778-0.1938-2.0802-0.41268-0.94421-1.0207 1.6484-0.88218 6.9652 1.2381 11.152 4.4473 1.5519 1.1894 2.504 1.684 3.4583 1.7964 0.72426 0.08531 2.0731 0.4272 2.9974 0.75976 1.9276 0.69354 2.7944 0.75992 3.1166 0.23862 0.49221-0.79646-3.0384-2.1765-5.5682-2.1765-1.0682 0-1.556-0.22221-2.6525-1.2083-3.6209-3.2561-6.2476-4.6883-9.2141-5.024-1.5771-0.17846-1.7771-0.27327-1.4381-0.68175 0.30768-0.37074 0.84021-0.43276 2.4361-0.28373 2.5142 0.23478 5.0886 1.4111 8.2709 3.7793 1.9741 1.4691 2.6252 1.7784 4.0532 1.9258 0.93567 0.09657 2.4847 0.53424 3.4422 0.9726s1.8146 0.67792 1.9045 0.53236c0.16314-0.26402-4.5416-2.2619-6.3473-2.6955-0.52363-0.1257-1.5252-0.69824-2.2258-1.2723-1.7098-1.401-6.14-3.5984-8.1041-4.0196-0.87439-0.18752-1.5898-0.4766-1.5898-0.64241 0-1.4182 7.0762 0.76583 10.329 3.188 0.87403 0.6508 2.3757 1.4308 3.3371 1.7332s2.789 0.99949 4.0614 1.5489l2.3134 0.99892 0.66506-0.66504c0.36576-0.36578 0.57045-0.81807 0.45483-1.0051-0.30523-0.49395-5.1378-1.9694-7.1518-2.1836-1.3934-0.14817-2.2142-0.51346-4.2906-1.9094-3.202-2.1528-5.122-3.1428-6.652-3.4298-1.107-0.20765-1.1544-0.26135-0.6872-0.77759 0.94384-1.0429 4.6084 0.151 9.3925 3.0601 1.333 0.81056 4.1253 1.9318 7.7866 3.1267 3.9106 1.2763 7.2779 2.6466 10.692 4.351 2.7412 1.3684 5.1505 2.488 5.3538 2.488 0.62122 0 2.216-1.2849 2.216-1.7854 0-0.93159 0.98101-2.341 1.7666-2.5382 1.0373-0.26035 2.0472 0.62336 2.0472 1.7914 0 0.95254-0.38805 1.3778-1.5891 1.7416-0.83621 0.2533-1.7888 1.0112-4.9443 3.9338-1.0588 0.98062-4.0622 3.7137-6.6742 6.0735-6.1727 5.5766-9.6754 8.9397-9.6754 9.2898 0 0.15431 0.61669 0.55338 1.3705 0.88681 2.9113 1.2878 3.0652 2.7798 0.35701 3.4617-0.92981 0.23412-1.7571 0.70992-2.2472 1.2924-0.49872 0.59267-1.1403 0.9571-1.7966 1.0206-0.87119 0.08423-1.0366 0.23844-1.1284 1.0522-0.14997 1.3297-0.59263 1.748-1.8494 1.748-0.59653 0-1.4436 0.23523-1.8824 0.52273-0.66698 0.43701-0.9969 0.46306-2.012 0.1589-0.66789-0.20009-1.3739-0.36381-1.5688-0.36381s-1.3225 0.89647-2.5057 1.9921-3.1088 2.8171-4.2791 3.8254c-1.9658 1.6936-2.1528 1.7867-2.4554 1.2214zm-31.013-2.7457c-0.17483-0.05831-0.72587-0.19646-1.2245-0.30699-1.078-0.23894-1.0855-0.15249 0.60666-6.9584 0.60203-2.4212 1.0883-4.5665 1.0805-4.7673-0.02869-0.74622-1.1851 1.9341-1.7475 4.0503-0.41039 1.5444-0.75311 2.2353-1.1618 2.3422-0.31888 0.08338-0.6584 0.52781-0.75456 0.98762-0.31882 1.5243-1.0721 2.9019-1.5868 2.9019-0.88837 0-4.7671-2.1178-7.2734-3.9713-2.7923-2.065-4.1461-2.7029-5.7363-2.7029-1.5114 0-1.7667-0.72661-0.66075-1.881 1.5281-1.595 2.7348-5.1708 3.0518-9.0437 0.15558-1.9007 0.35323-3.5262 0.43915-3.6122 0.17061-0.17061 1.7516 1.5229 1.7679 1.8937 0.00555 0.12573 0.83242 0.7511 1.8375 1.3897s2.5425 1.7673 3.4166 2.5082c1.8444 1.5636 5.4427 3.4743 5.7145 3.0344 0.10208-0.16518 0.09179-1.2167-0.02299-2.3368-0.13738-1.3407-0.09039-2.1095 0.1375-2.2504 0.31973-0.19761 2.814 1.1971 3.269 1.8279 0.10955 0.15184-0.00618 1.0624-0.25717 2.0235-0.53493 2.0486-0.3449 2.5606 0.34106 0.91895 0.63776-1.5263 1.2523-1.4571 3.31 0.37303l1.686 1.4995-0.80629 1.4302c-1.5299 2.7139-2.2973 4.6179-3.0079 7.4633-0.78522 3.1439-1.1409 3.6125-2.4182 3.1864zm-2.3837-8.4451c0-0.49268-0.14304-0.98417-0.31781-1.0922s-0.31781 0.02655-0.31781 0.29907c0 0.60718 0.17232 0.61985-1.9069-0.14016-0.95647-0.3496-1.7594-0.63564-1.7844-0.63564s-1.1645-0.85811-2.5324-1.9069c-2.677-2.0526-3.4164-2.3274-3.2536-1.2094 0.11237 0.77168 3.7906 3.9824 5.8223 5.0823 1.5432 0.83544 3.354 1.2072 3.8933 0.79927 0.21851-0.16525 0.39728-0.70356 0.39728-1.1962zm-225.41 2.0134c-1.0787-0.11283-1.1918-0.21338-1.1918-1.0589 0-1.9078 2.2756-2.8794 3.8184-1.6302 0.80185 0.6493 0.96265 2.1976 0.27357 2.6341-0.43964 0.27848-0.71406 0.28369-2.9001 0.05502zm206.03-3.2925c-0.7866-0.12521-1.752-0.15462-2.1453-0.06536-0.94853 0.21527-0.92933-0.39676 0.06858-2.1822 1.6198-2.8982 2.3085-8.154 1.633-12.464l-0.24288-1.5496 1.5351 0.22163c2.7035 0.39031 2.9119 0.50064 3.5898 1.901 0.62912 1.2995 0.6345 1.4408 0.16096 4.18-1.001 5.7893-2.1292 9.6671-2.9285 10.066-0.13232 0.06599-0.88421 0.01753-1.6708-0.10768zm-132.85-1.8519c0-0.63309 2.9399-3.2052 3.6635-3.2052 0.60523 0 2.4725 2.2544 2.1415 2.5855-0.24202 0.242-4.6706 1.2284-5.5151 1.2284-0.15942 0-0.28985-0.27387-0.28985-0.6086zm6.734 0.05607c0.11585-0.60158 0.95899-0.88364 1.7426-0.58295 0.73079 0.28042-0.07498 1.1355-1.07 1.1355-0.5688 0-0.75021-0.14905-0.67251-0.55253zm9.6337 0.15894c-0.36314-0.21383-1.5212-0.33578-2.7015-0.28448-2.4184 0.10512-3.805-0.33177-4.0521-1.2767-0.09722-0.37172-0.51242-1.3072-0.92272-2.0788s-0.74596-1.4669-0.74596-1.5451c0-0.32062 0.89381-0.10372 2.0781 0.50427 0.69246 0.35551 1.5626 0.57187 1.9337 0.48082 0.52027-0.12766 0.87572 0.1245 1.5529 1.1016 0.48299 0.69695 1.0677 1.2672 1.2993 1.2672s0.68064 0.27856 0.99783 0.61902c0.71649 0.76904 1.0937 0.5443 1.995-1.1886 0.39022-0.75031 0.87067-1.316 1.0677-1.257 0.5401 0.16161 1.8825 3.0297 1.6733 3.575-0.22553 0.58772-3.2172 0.64705-4.1755 0.08281zm5.1541-0.63932c-0.1394-0.38766 0.0225-2.2256 0.26598-3.0194 0.09093-0.29642 0.38691-0.25087 1.1648 0.17924 0.57357 0.31716 2.2942 0.90963 3.8238 1.3166 1.5751 0.41911 2.7809 0.90834 2.7809 1.1283 0 0.78938-7.7565 1.171-8.0354 0.3953zm-120.2-0.76464c-1.6858-0.20016-4.6939-0.76912-7.5482-1.4276-2.2468-0.51838-2.7809-0.7531-2.7809-1.2221 0-0.65838 1.7157-6.0432 2.2342-7.0118 0.18715-0.34971 0.4524-0.56653 0.58945-0.48184s0.66618 0.22659 1.1759 0.31532c2.6799 0.46652 7.2225 1.1127 9.1356 1.2994l2.1703 0.21191-0.2005 3.5475c-0.29519 5.2227-0.19172 4.9864-2.1597 4.9301-0.91437-0.02619-2.0916-0.09856-2.616-0.16083zm23.346-1.619c-0.01723-1.8647-0.56129-3.4398-1.7069-4.9418l-0.87724-1.1501 0.74288-0.16308c0.40858-0.0897 2.1731-0.30404 3.9211-0.47631 2.8661-0.28248 7.8509-0.9854 10.567-1.49 0.99198-0.18433 1.0261-0.15649 0.87901 0.71744-0.08416 0.50006-0.30471 2.261-0.49012 3.9132-0.3185 2.8381-0.71687 4.0072-1.2526 3.676-0.13004-0.08037-1.0792-0.0025-2.1093 0.17304-1.8104 0.30853-8.8996 1.2514-9.409 1.2514-0.13775 0-0.25672-0.67934-0.2644-1.5096zm73.623 1.0069c-0.53448-1.3928-0.2226-1.9351 1.5826-2.7518 3.1521-1.4261 4.0475-0.27135 1.5169 1.9562-1.5299 1.3467-2.7662 1.664-3.0994 0.79557zm16.518-0.62962c-0.65475-0.65473-0.50496-1.22 0.35713-1.3477 0.72558-0.10747 1.7767 0.76682 1.5931 1.3251-0.1918 0.58311-1.376 0.59683-1.9502 0.02259zm-8.689-0.45245c-0.73477-1.1766-0.35621-2.1206 0.68944-1.7194 0.32459 0.12456 0.5054 0.57976 0.5054 1.2723 0 1.2172-0.57862 1.4337-1.1948 0.44703zm-285-0.44309c-3.0822-0.86255-4.7114-3.4292-4.6925-7.3922 0.01286-2.6882 1.1803-6.0437 3.4795-10.001 0.88823-1.5287 1.5084-3.0263 1.6038-3.8732 0.14169-1.2571 0.06232-1.4594-0.88597-2.2573l-1.0416-0.87646 0.39921-2.5977c0.60626-3.9449 0.4203-3.6844 2.502-3.5048 4.5576 0.39325 6.5357 2.1498 8.0152 7.1176 0.5782 1.9415 0.6775 2.9296 0.58018 5.7731-0.07702 2.2503-0.00306 3.4307 0.21496 3.4307 0.18282 0 0.80454-0.50057 1.3816-1.1124 1.3348-1.4151 2.0444-1.5294 1.3498-0.21748-0.15585 0.29441-0.37288 1.2504-0.48227 2.1244s-0.62365 2.428-1.1428 3.4534-0.85783 2.0036-0.75262 2.1738 0.67548 0.21868 1.2673 0.10765c0.93783-0.17593 1.076-0.11839 1.076 0.44819 0 0.35752-0.11605 0.65005-0.25789 0.65005s-0.55368 0.27556-0.9152 0.61237c-1.4805 1.3793-7.1614 3.7282-8.3736 3.4623-0.46879-0.10281-0.47653 0.07652-0.08827 2.0434 0.16187 0.82 0.10648 0.87144-0.89646 0.83249-0.58795-0.02283-1.6411-0.2016-2.3403-0.39727zm3.6549-8.0894c0-0.41383-0.37781-0.68905-0.68515-0.4991-0.3287 0.20314-0.04528 0.76394 0.38609 0.76394 0.16449 0 0.29906-0.11918 0.29906-0.26484zm298.5 7.2009c-0.42862-0.42861 0.04284-1.2153 0.72834-1.2153 0.56337 0 0.81312 0.80285 0.38342 1.2326-0.45102 0.451-0.64654 0.44796-1.1118-0.01727zm-4.0453-1.2185c-0.31611-0.70098-0.49043-1.3588-0.38739-1.4619 0.21548-0.21548 2.4662 0.45222 2.9113 0.86365 0.33645 0.31102-0.97793 1.8727-1.5761 1.8727-0.20519 0-0.6317-0.57353-0.9478-1.2745zm-5.4737-0.33892c0-1.0794 0.12881-1.3446 0.77192-1.5891 1.3046-0.49602 1.813-0.33294 2.61 0.83717 0.69056 1.0139 0.71831 1.1751 0.27787 1.6155s-0.58883 0.4377-1.4879-0.02722c-0.89146-0.46098-1.0188-0.46405-1.1859-0.02859-0.38234 0.99636-0.98597 0.50182-0.98597-0.80778zm135.6 0.58053c-0.37322-0.3933-1.3178-1.6045-2.099-2.6915-1.4567-2.0269-5.0372-4.9827-7.7611-6.407-0.79493-0.41564-1.7101-0.94932-2.0337-1.186-0.56181-0.4108-0.54949-0.46632 0.27216-1.2278 0.89381-0.82832 2.4146-3.7553 2.42-4.6576 0.00171-0.28449-0.23525-0.71355-0.52661-0.95346s-0.92837-0.98493-1.4157-1.6556c-0.72768-1.0016-0.8208-1.3238-0.52123-1.8034s0.14971-1.0421-0.80938-3.0859c-1.8365-3.9136-4.0407-12.619-4.0301-15.916 0.00928-2.8817 1.5424-6.5193 3.7187-8.8232 0.7712-0.81643 1.3279-1.678 1.2372-1.9146-0.26923-0.7016-1.5645-0.8386-3.0592-0.3236-1.6227 0.55906-1.8775 0.47061-1.0583-0.36737 2.9936-3.0624 6.279-3.5007 8.719-1.163 0.78623 0.75325 0.93551 0.799 1.1115 0.34056 0.11179-0.29127 0.10507-1.0527-0.01488-1.692l-0.21803-1.1624 0.89824 0.56521c0.49402 0.31087 1.3074 0.98727 1.8075 1.5031 0.60874 0.62795 1.0814 0.86598 1.4302 0.72029 3.1519-1.3165 5.5776-1.2621 8.8325 0.19831 2.2389 1.0045 3.0982 1.1631 2.8964 0.53452-0.17525-0.54602-3.13-2.4631-3.7963-2.4631-0.29759 0-0.64245-0.16403-0.76634-0.36452-0.1616-0.2614 0.17029-0.31933 1.1731-0.20479 1.6693 0.19068 5.1376 1.7634 7.2748 3.2988 1.6983 1.2201 1.9885 1.1056 1.903-0.7512-0.07899-1.7144-0.07499-1.7198 0.88106-1.2191 2.2182 1.1618 4.0725 4.1737 4.4304 7.1962 0.17301 1.4605 0.1017 1.7075-0.82602 2.8619l-1.0153 1.2634 1.2082 2.4471c1.1861 2.4022 1.2078 2.5116 1.1835 5.9573-0.01989 2.8129-0.16186 3.8574-0.71492 5.2582-0.91765 2.3243-0.87136 3.1494 0.25013 4.4615 0.51727 0.6052 0.94634 1.3395 0.95343 1.6318s-0.58714 1.0451-1.3206 1.6729-1.6988 1.8904-2.1453 2.8057c-0.8112 1.6631-0.81301 1.6644-2.5598 1.8232-1.8357 0.16688-2.073 0.5192-1.0873 1.6141 0.63674 0.70729 0.56085 1.4833-0.18395 1.8819-0.36373 0.19465-0.63567 0.66546-0.63567 1.1005 0 1.0764-1.3969 2.0777-2.8984 2.0777-0.673 0-2.4575-0.35755-3.9655-0.79455s-3.3764-0.79455-4.152-0.79455c-1.3509 0-1.4359 0.05671-2.0232 1.3507-0.73679 1.6232-0.77301 3.1523-0.14485 6.1179 0.7768 3.6673 0.57162 4.4045-0.81829 2.94zm-447.77 0.09341c-0.22921-0.14166-0.50982-1.1756-0.62743-2.312-0.11703-1.1306-0.45493-2.4253-0.75088-2.877-0.58487-0.89263-2.4864-2.4527-2.9895-2.4527-0.17186 0-1.2113 0.36523-2.3099 0.81161-1.2153 0.49382-2.4498 0.77382-3.1529 0.7151-0.98474-0.08225-1.2519-0.28282-1.8076-1.3572-0.40917-0.79103-0.94223-1.3287-1.4308-1.4432-1.2175-0.28537-1.1504-1.334 0.15877-2.4835 0.62058-0.54488 1.1283-1.048 1.1283-1.118s-0.65065-0.20063-1.4459-0.29026-1.5381-0.25515-1.6507-0.36781-0.17082-0.78128-0.12925-1.4858c0.0631-1.0694-0.08423-1.4303-0.89184-2.1847-0.53208-0.49703-0.96741-1.1043-0.96741-1.3495s0.50056-0.93095 1.1124-1.5239c1.2407-1.2025 1.3654-1.971 0.60739-3.7446-0.32977-0.77163-0.5083-2.1491-0.51457-3.97l-0.00958-2.7884-1.5727-0.67653c-3.1639-1.3611-3.9379-3.9807-2.0184-6.831 1.8341-2.7234 2.6427-3.122 6.3682-3.1391 2.2922-0.0105 3.9313-0.21925 5.8797-0.74887 4.1452-1.1267 7.74-0.95907 14.455 0.67421 4.3593 1.0603 5.689 1.913 7.5735 4.8565 0.74445 1.1628 1.0771 2.5567 1.7075 7.1554 0.08421 0.61424-0.15435 2.7595-0.53014 4.7673-0.58117 3.1051-0.94122 4.1356-2.4099 6.897-1.1903 2.2381-1.7266 3.6102-1.7266 4.4174 0 0.91725-0.23753 1.4015-1.0966 2.2359-1.4558 1.4139-1.7937 1.3567-1.6901-0.28571 0.11215-1.7775-0.52796-1.7919-1.7595-0.0396-1.0007 1.4239-0.92758 1.9565 0.48148 3.5056 0.85745 0.94269 0.36528 1.7649-1.4777 2.4688-0.96918 0.37013-2.0106 1.18-3.1818 2.4741-2.1007 2.3213-2.7809 2.83-3.3304 2.4904zm10.783-11.156c0-0.16449-0.14302-0.29907-0.31781-0.29907s-0.31783 0.22297-0.31783 0.49549 0.14302 0.4071 0.31783 0.29906 0.31781-0.331 0.31781-0.49548zm291.3 11.164c-0.2171-0.35126 0.28426-0.73055 0.57773-0.43708 0.30219 0.30218 0.24587 0.73294-0.09582 0.73294-0.16447 0-0.38135-0.13313-0.48191-0.29586zm7.5346-0.03186c-0.96321-0.38717-0.90572-1.2014 0.10272-1.4545 1.0039-0.25195 1.5409 0.22381 1.2582 1.1146-0.2335 0.73573-0.32144 0.7577-1.3609 0.33991zm24.747-2.2252c-1.7288-1.2523-2.1643-2.1845-1.6267-3.4821 0.66062-1.5949 1.7393-2.2283 3.7946-2.2283 2.1801 0 4.1791 1.1282 4.9765 2.8085 0.67858 1.4301 0.17483 2.413-1.6666 3.2519-2.0382 0.92849-3.8748 0.81114-5.4777-0.35001zm168.17 0.02363c-1.8522-2.3486-5.4045-3.8172-9.5236-3.9371-2.4289-0.07072-2.5174-0.10253-4.7002-1.69-5.6869-4.1357-9.9986-6.1314-13.269-6.1418-1.377-0.00436-1.5554-0.48738-0.37829-1.0237 1.9355-0.88186 6.6746 0.90352 12.177 4.5873l3.8138 2.549c0.53573 0.3558 1.4614 0.55709 2.583 0.5617 3.9801 0.01637 8.2793 1.5812 10.723 3.9029 0.96506 0.91702 0.99664 1.0138 0.50693 1.5549-0.70431 0.77828-1.0887 0.70602-1.9319-0.36318zm2.4964-1.8714c-0.85487-1.2006-5.6683-3.6998-8.3376-4.3291-1.1144-0.2627-2.7522-0.47975-3.6394-0.48233-1.324-0.00385-1.7512-0.15271-2.3836-0.83066-3.3952-3.6396-8.8924-6.6034-12.848-6.9267-0.87402-0.07144-1.6442-0.14405-1.7114-0.16135-0.49104-0.1263 1.6837-1.3011 2.3972-1.295 3.1166 0.0268 8.1349 2.4184 11.941 5.6907 0.39686 0.34117 1.1506 0.98615 1.675 1.4333 0.6417 0.54716 1.3304 0.81311 2.1063 0.81337 1.8083 6.1e-4 5.6544 0.95349 7.7461 1.9191 2.2107 1.0205 4.6783 3.3297 4.5412 4.2495-0.14474 0.9707-0.76228 0.93712-1.4872-0.08088zm1.2742-2.2874c-2.428-2.1953-5.6244-3.7235-9.7837-4.6777-2.5791-0.59167-3.961-1.0706-4.3969-1.5237-3.1444-3.2688-7.4159-5.6916-11.521-6.5346-2.0933-0.42989-2.3785-0.68418-1.3716-1.223 2.2328-1.195 8.3306 1.3734 12.79 5.3873 1.623 1.4608 2.2846 1.8463 3.4397 2.0041 2.7592 0.37697 6.6235 1.7107 8.7838 3.0318 2.9362 1.7955 5.0215 3.6825 4.7761 4.3219-0.31386 0.81783-1.2383 0.55031-2.7164-0.78609zm-308.82-2.101c-0.84042-0.41954-2.5289-2.786-4.4313-6.2106-0.17481-0.31467-0.85013-1.3279-1.5007-2.2517-1.1332-1.609-1.1856-1.7992-1.2482-4.5296-0.05662-2.4717 0.04258-3.0821 0.74727-4.5981 2.3792-5.1182 5.0209-11.129 5.0209-11.423 0-0.38243-0.73511-0.42747-2.1988-0.13473-1.1472 0.22943-2.0035 1.5256-1.7212 2.6052 0.30116 1.1517-0.16238 2.1962-1.2816 2.8879-0.91413 0.56496-1.5797 0.66189-4.5454 0.66189-6.4343 0-11.7 0.58213-14.496 1.6026-2.8568 1.0426-8.0088 4.3312-10.326 6.5911-2.586 2.5222-2.9284 5.5068-0.73596 6.415 1.0838 0.44892 1.2739 1.2611 0.48077 2.0542-0.6038 0.6038-0.33692 0.58132-8.3995 0.70755-3.5834 0.0561-6.9193 0.12372-7.413 0.15027-1.0447 0.05617-1.6766-0.4869-1.9728-1.6953-0.18208-0.74292-0.09629-0.88892 0.62934-1.071 0.55932-0.14038 1.221-0.80899 1.9795-2.0002 1.6922-2.6576 6.7856-7.6949 10.733-10.615 1.9137-1.4156 3.3092-2.6306 3.1012-2.7-0.489-0.163-6.488 2.7023-8.8712 4.2372-6.2206 4.0062-8.2156 5.6227-9.827 7.9624-0.78513 1.14-1.1875 2.0919-1.2146 2.8738-0.07471 2.1513-0.6675 2.3377-8.4663 2.6621-10.238 0.42588-10.287 0.42404-11.278-0.42823-1.0382-0.89301-0.85769-1.8946 0.43084-2.3907 0.47489-0.18284 3.9031-0.3841 7.6183-0.44726l6.7549-0.11482 2.4619-2.4387c6.7335-6.67 22.278-14.891 37.899-20.044 8.8404-2.9163 7.9728-3.2445-2.1706-0.82089-5.4479 1.3017-13.678 3.9893-24.526 8.0096-18.963 7.0272-24.14 9.6858-31.472 16.161-2.6441 2.3351-3.4395 2.516-11.42 2.5965-5.2613 0.05309-6.3945-0.02008-7.4078-0.4784-1.3153-0.59494-1.7943-1.3607-1.2146-1.9419 0.25881-0.25946 2.8072-0.42752 8.2261-0.54251l7.8511-0.16659 3.0193-2.082c1.6606-1.1451 3.9489-2.6315 5.0851-3.303l2.1361-1.2648c0.03867-0.02404-0.22455-0.63969-0.58494-1.3681-0.54175-1.095-0.85674-1.3608-1.8183-1.5348-1.3408-0.24254-2.9111-0.97444-2.9111-1.3568 0-0.14388-0.67229-0.92442-1.494-1.7345-1.3062-1.2878-1.4959-1.6433-1.5096-2.829-0.01408-1.2184-0.19315-1.5277-1.7637-3.047-1.5582-1.5073-2.9311-2.3177-6.9013-4.0738-0.5619-0.24855-2.1351-0.81395-3.496-1.2564-3.2396-1.0534-6.0949-2.4401-10.921-5.3043-2.1714-1.2885-4.7173-2.758-5.6576-3.2654-1.6344-0.88199-3.8522-3.2607-3.8522-4.1315 0-0.48438-2.6552-6.6687-4.2908-9.9938-1.3331-2.7102-3.1949-5.9144-3.9435-6.787-0.43772-0.51022-0.4975-1.6865-0.44417-8.74 0.04241-5.6075-0.07631-9.0895-0.38049-11.16-0.24317-1.6553-0.41392-3.014-0.37945-3.0193s0.72597-0.3555 1.5366-0.77813l1.474-0.76843 1.3219 0.78066c1.1894 0.70239 1.4805 1.1459 2.9036 4.4234 2.605 5.9992 5.6126 11.783 7.2123 13.869 0.82785 1.0797 2.4706 2.7769 3.6505 3.7716 2.5969 2.1893 2.6402 2.4923 0.87633 6.1398l-1.269 2.624 1.3315 1.8881c0.73234 1.0384 1.4821 1.8893 1.6662 1.8908 0.50195 0.0041 5.4709 2.4367 7.6446 3.7425 2.7284 1.639 8.6434 6.47 12.707 10.378 1.9196 1.8462 3.6175 3.3567 3.7732 3.3567s1.4904 1.1785 2.9661 2.6189c1.8555 1.8111 3.4364 3.0119 5.1257 3.8933l2.4427 1.2744 0.34467 2.0658c0.18957 1.1362 0.44696 2.3797 0.57199 2.7632 0.17589 0.53961 0.04397 0.81755-0.58303 1.2284-0.77765 0.50955-1.1357 1.7292-0.50757 1.7292 0.16653 0 1.9185-0.66557 3.8933-1.479s6.5827-2.5811 10.24-3.9281l6.6494-2.449-0.07486-2.19c-0.04118-1.2045-0.20508-3.5486-0.36423-5.2092-0.48168-5.026-0.36628-7.015 0.67694-11.667 0.99579-4.4408 1.1594-7.9294 0.40716-8.6816-0.22562-0.22562-1.0152 0.22179-2.5276 1.4322-1.7517 1.402-2.3651 1.725-3.0133 1.5865-0.66379-0.14182-1.1034 0.11382-2.3836 1.3861-0.86336 0.85797-1.9052 2.011-2.3153 2.5622-0.93669 1.2592-2.004 1.8134-4.6936 2.4372l-2.1272 0.49334-1.3896-1.3638c-1.4267-1.4002-1.8622-1.9898-4.3026-5.8237-2.0273-3.1849-3.5573-6.2119-4.9673-9.8275-1.2075-3.0962-1.2536-3.1603-2.545-3.5416-0.72338-0.21359-1.9951-0.82252-2.826-1.3532s-1.9264-1.0676-2.4344-1.1932l-0.92364-0.22832 0.19162 1.398c0.23338 1.7027 3.6551 9.498 6.1359 13.979 4.3983 7.9442 10.016 15.363 17.416 22.998 1.8547 1.9137 3.2646 3.5783 3.1331 3.6992s-1.0256 0.44455-1.987 0.7193-2.6061 0.84996-3.6549 1.2782c-2.077 0.84813-2.4998 0.74608-2.8486-0.68752-0.44013-1.8093-1.704-3.1683-4.5248-4.8652-1.5383-0.92539-2.94-1.8517-3.1148-2.0584s-1.5639-2.0157-3.0869-4.0199c-7.2258-9.5088-13.859-21.732-17.639-32.505-4.9053-13.979-7.2206-29.774-6.4546-44.032 0.58841-10.953 1.5933-16.925 4.5167-26.842 0.3985-1.3518 3.3993-9.1054 4.8586-12.554 1.7822-4.2116 5.1642-10.677 7.4813-14.302 0.1676-0.2622 0.54011-0.90579 0.8278-1.4302 0.79067-1.4412 3.798-5.6911 6.2973-8.899 10.439-13.399 22.074-23.49 36.126-31.332 13.014-7.2622 27.386-11.986 41.92-13.776 8.4236-1.038 11.616-1.2219 17.798-1.0258 8.4092 0.26679 11.323 0.58347 19.864 2.159 10.584 1.9524 20.207 5.1799 29.848 10.011 18.848 9.4449 34.02 22.943 45.498 40.479 6.8732 10.501 11.755 21.513 15.06 33.971 4.8986 18.462 5.1935 37.26 0.89559 57.084-0.47078 2.1716-0.73667 2.2655-3.1788 1.1225-0.74691-0.34955-2.1446-0.90435-3.106-1.2329l-1.748-0.59734 0.10876-1.3942c0.05981-0.76678 0.44228-2.9043 0.84991-4.7499 2.1964-9.9446 2.2719-26.671 0.16857-37.322-1.7667-8.9461-3.9274-16.392-6.5712-22.645-1.4388-3.4028-5.4774-11.283-7.0283-13.714-5.3334-8.3593-6.9482-10.58-11.233-15.452-10.449-11.878-23.41-21.456-37.401-27.636-3.6139-1.5965-14.062-5.1742-18.055-6.1827-2.7822-0.70258-9.8365-1.9336-14.913-2.6025-4.086-0.53835-18.029-0.54243-22.088-0.00646-14.527 1.918-24.909 5.0253-37.026 11.082-10.697 5.347-19.756 12.002-28.302 20.791-5.3489 5.5012-7.3304 7.9187-13.112 15.998-3.044 4.2533-7.9577 13.346-10.047 18.592-0.66141 1.6606-1.3877 3.4484-1.614 3.9728s-0.91345 2.5267-1.527 4.4495c-4.7084 14.756-6.2495 28.338-4.6658 41.119 0.35227 2.8429 0.55836 5.3018 0.45797 5.4642s-1.0143 0.29533-2.031 0.29533c-2.4559 0-3.8348 0.29998-3.8348 0.83427 0 0.32099 0.49354 0.43701 1.859 0.43701 1.0224 0 2.9639 0.0934 4.3144 0.20756l2.4554 0.20755-0.10324-5.3721-0.10324-5.3721 3.2277-0.09024c2.0462-0.05721 3.3442-0.23172 3.5461-0.47673 0.17512-0.21257 0.96094-1.9597 1.7463-3.8825s2.0962-4.9106 2.9131-6.6395c1.2917-2.7339 1.5448-3.084 1.9422-2.6865s0.22456 1.0141-1.327 4.7326c-3.9121 9.3757-3.8604 9.0896-1.5883 8.7782 1.707-0.23397 1.7655-0.09141 1.7716 4.3169l0.00434 3.0988h1.2631c1.099 0 1.3354 0.13422 1.8198 1.0329 1.3544 2.5128 1.6645 3.8189 1.6736 7.0469 0.00494 1.7615 0.13958 3.749 0.29919 4.4166 0.32312 1.3516 0.10296 2.3883-0.98053 4.6176-0.99683 2.051-0.88256 3.4248 0.48432 5.8233 1.5648 2.7459 1.8874 3.0836 4.9349 5.1669 1.7707 1.2105 2.7674 1.7132 2.9785 1.5021 0.40189-0.4019 0.44263-2.5267 0.09466-4.9369-0.26853-1.86-0.26487-1.8727 0.81174-2.8194 0.59481-0.52301 1.582-1.3261 2.1939-1.7847s1.2008-0.95559 1.3089-1.1045 2.3964-2.512 5.0851-5.2512c2.7461-2.7978 5.3476-5.7607 5.936-6.7608 1.7438-2.9639 2.008-3.1156 5.3144-3.0514 3.1177 0.06053 2.3013 0.33184 9.9075-3.2927 1.4317-0.68225 2.8177-1.2404 3.08-1.2404 0.97722 0 0.87326 0.73216-0.26028 1.8332-0.64274 0.62429-1.5537 1.79-2.0244 2.5905-1.761 2.9949-1.9871 3.3942-2.6651 4.7066-0.38181 0.73906-0.59661 1.4414-0.47732 1.5606s1.0017 0.04127 1.9609-0.1734c1.5245-0.34116 1.8586-0.32265 2.6538 0.14708 0.50033 0.29555 1.0833 1.0176 1.2956 1.6045 0.38825 1.0737 2.0523 2.9862 2.5983 2.9862 0.47739 0 0.33729-1.9896-0.34128-4.8468-0.59735-2.5152-0.6049-2.7724-0.12845-4.3768 0.41382-1.3935 0.4424-2.0269 0.1566-3.4709-0.19228-0.9715-0.56937-3.125-0.83799-4.7856-0.90047-5.5669-1.3217-6.0721-4.5358-5.4398-3.6442 0.71695-5.7827-1.3285-4.4491-4.2555 0.31037-0.6812 0.28041-0.98882-0.17068-1.7524l-0.54713-0.92621 1.3036-0.94436c0.717-0.5194 1.4731-1.0051 1.6803-1.0794 0.75465-0.27051-0.14294-0.65003-1.8775-0.79388l-1.7768-0.14734 0.10856-1.9141c0.10783-1.9012 0.10175-1.9164-0.90154-2.2624-1.3968-0.48169-1.4598-0.59705-1.0831-1.9848 0.20941-0.77137 0.74522-1.5515 1.4491-2.1099 0.61427-0.4873 1.3406-1.3187 1.6141-1.8476 0.45437-0.87865 0.45096-1.083-0.03955-2.3673-0.60764-1.5911-0.50232-3.0592 0.50673-7.0633 0.34035-1.3505 0.62101-2.5438 0.62369-2.6516s-0.55659-0.5677-1.2428-1.0218c-1.3779-0.91188-1.5949-1.5617-1.2251-3.6696 0.27353-1.5592 1.1642-2.5045 3.3756-3.5824 1.6266-0.79292 4.0067-1.1293 4.5864-0.64819 0.22505 0.18678 0.83472 0.3275 1.3548 0.31271s1.2563 0.07171 1.636 0.19222c0.38916 0.12352 1.4018-0.01359 2.321-0.31424 1.1835-0.38711 2.1267-0.47507 3.4398-0.32079 0.99503 0.11691 2.9533 0.28428 4.3517 0.37192 3.1399 0.19679 4.7109 0.60272 6.1701 1.5943 0.6206 0.4217 1.3844 0.76673 1.6973 0.76673 0.9962 0 3.215 2.407 4.4427 4.8195 1.66 3.262 1.9771 5.7688 1.5013 11.866-0.52882 6.7766-0.87895 7.8915-4.2919 13.666-2.0929 3.5412-2.7962 5.4724-3.4724 9.5346-0.67311 4.0437-1.1967 5.4131-2.6731 6.992-0.65385 0.6992-1.6059 1.8434-2.1157 2.5426s-1.969 2.388-3.2427 3.7529c-1.9534 2.0933-4.5137 6.0638-4.1468 6.4308 0.05944 0.05944 1.0281-0.34833 2.1525-0.90616 1.7995-0.89278 2.418-1.0274 5.1641-1.1237 3.0088-0.10558 3.135-0.13947 3.5488-0.95346 0.58589-1.1524 1.3776-4.4544 1.8025-7.5182 0.63551-4.5819 0.61495-4.5517 2.0993-3.0849 0.49414 0.48834 1.8246 1.2229 2.9565 1.6323 1.8137 0.65604 2.4112 0.72124 5.0317 0.54911 2.5648-0.16848 3.14-0.11042 4.1844 0.42237 1.4006 0.71452 3.8102 3.1188 3.8267 3.8182 0.03225 1.368 3.5972 9.9571 5.4589 13.152 0.52122 0.89454 1.5625 2.27 2.3139 3.0566 1.2073 1.2638 1.39 1.652 1.5708 3.3371 0.11251 1.0488 0.47858 2.9682 0.81347 4.2652 0.44081 1.7072 0.51974 2.5249 0.28592 2.9618-0.50411 0.94194 0.01286 4.5442 0.8885 6.191 1.0093 1.8982 0.79276 3.5087-0.94046 6.9941-0.71501 1.4379-1.2176 2.6967-1.1169 2.7974 0.23866 0.23866 8.1735-1.5779 11.902-2.725 3.9012-1.2 5.8413-2.2312 7.5954-4.0369 3.0737-3.1642 4.0516-6.105 4.0955-12.316l0.02249-3.1782-1.493-2.2884c-2.2777-3.4911-5.5777-6.7594-10.548-10.447-1.6362-1.2138-7.5131-4.5777-12.59-7.2062-1.6606-0.8598-4.235-2.3597-5.7208-3.3331l-3.9668-2.5961c-1.5922-1.0398-4.1404-3.6244-5.163-5.2366-1.164-1.8353-2.2401-4.9289-2.4935-7.1686-0.20334-1.7973-0.12291-2.2394 0.85262-4.6863 0.88904-2.23 1.4858-3.1425 3.4178-5.2257 5.1942-5.6007 13.253-10.439 23.225-13.944 2.524-0.88716 6.314-1.9616 8.4222-2.3877s6.5017-1.3428 9.7633-2.0373 6.1935-1.2502 6.5153-1.235 1.4925-0.14447 2.6016-0.35485c3.8214-0.72488 11.779-0.95807 17.147-0.50245 2.7449 0.23299 6.4923 0.52088 8.3278 0.63975 4.646 0.30092 7.4245 0.92758 9.9699 2.2486 2.0274 1.0522 4.9833 2.9732 5.7917 3.7638 0.19104 0.18684 1.524 1.4124 2.9622 2.7234s2.919 2.8842 3.2908 3.496 0.75505 1.1839 0.85166 1.2713c0.84947 0.76835 1.9284 4.6478 1.9132 6.879-0.0144 2.1038-1.0304 7.016-1.7326 8.3764-2.3647 4.5814-7.3446 8.174-13.512 9.748-2.7999 0.71458-17.641 1.2665-20.28 0.75415-2.7378-0.53159-5.4147-1.6505-8.0064-3.3466-2.6871-1.7585-3.9039-3.0777-4.9495-5.3657-0.7205-1.5767-0.82795-2.1678-0.69507-3.8232 0.38707-4.8219 5.0525-9.851 10.324-11.129 3.7968-0.92051 8.557 0.00195 11.368 2.2031 0.54592 0.4274 0.56801 0.53994 0.15891 0.80924-0.26134 0.17203-0.83272 0.21732-1.2697 0.10064-1.6283-0.43477-3.7191-0.23113-4.8588 0.47324-1.2788 0.79037-4.8986 5.1551-5.4378 6.557-0.472 1.2272-0.8893 4.1489-0.75651 5.2968 0.35291 3.0506 2.7375 6.0582 5.2781 6.657 3.1524 0.74298 15.615-0.13136 19.123-1.3417 3.5313-1.2181 9.6144-7.7172 11.86-12.671 0.51093-1.1271 0.65618-2.1235 0.67286-4.6156 0.01961-2.9335-0.0471-3.2923-0.86682-4.6604-0.84645-1.4126-2.4487-3.0613-4.5186-4.6495-3.2608-2.5019-7.7028-5.3856-10.166-6.6-2.7576-1.3593-3.0362-1.4271-7.7517-1.8874-9.625-0.93954-17.656-0.5218-28.321 1.4732-7.7555 1.4507-17.233 5.4826-24.94 10.61-6.6848 4.4472-9.2041 7.6775-9.1658 11.753 0.05119 5.4415 2.2808 7.9125 13.448 14.904 4.6138 2.8886 13.987 9.3343 16.687 11.476 0.66132 0.5244 2.4696 2.1914 4.0184 3.7046 4.7499 4.6403 6.2483 8.9778 4.775 13.822-0.71818 2.3617-2.3876 5.3215-4.2519 7.5387-1.7826 2.12-9.2404 7.545-15.396 11.2-3.1139 1.8487-16.861 8.8008-21 10.62-1.3065 0.57421-1.7327 0.94842-1.9988 1.7548-0.44017 1.3337-3.6384 6.1391-5.7021 8.5674-3.5061 4.1257-7.0058 8.5688-6.998 8.8845 0.00451 0.18275 0.54315 0.57837 1.197 0.87914 0.976 0.44898 1.4007 0.97515 2.3728 2.9398 0.68153 1.3774 1.3849 2.393 1.6574 2.393 0.7112 0 0.9297-1.4323 0.46934-3.0766-0.37277-1.3314-0.35655-1.5002 0.18196-1.894 0.98624-0.72116 1.3061-0.5078 2.0147 1.344 0.85526 2.2349 0.85673 2.1971-0.23534 6.0103-0.92584 3.2327-1.463 3.9549-2.9515 3.9681-0.29122 0.00258-0.98257 0.57676-1.5364 1.276-1.1086 1.3998-1.3026 1.453-2.7196 0.7456zm-40.486-10.121c0.31283-2.2555 1.6516-4.1211 4.7875-6.6714 3.0207-2.4566 5.6226-4.07 9.9692-6.1816 4.5343-2.2028 8.4468-3.5081 17.644-5.886 14.39-3.7206 16.817-4.4408 22.247-6.6 6.1365-2.4401 7.558-3.0981 10.766-4.9834 4.2791-2.5146 3.973-2.5141-6.6346 0.00918-2.8842 0.68608-6.1736 1.453-7.3098 1.7042l-7.3099 1.6113c-2.8842 0.63503-6.4597 1.4838-7.9455 1.8861l-5.4029 1.4586c-3.6342 0.97805-7.5102 2.6212-12.969 5.4976-10.871 5.7288-17.962 11.704-20.785 17.513-0.84802 1.7455-0.55979 2.1306 1.4944 1.9966 1.2238-0.07983 1.2779-0.1304 1.4476-1.3542zm-4.403-0.44954c0.13124-0.77164 0.62187-1.9821 1.0903-2.69 1.2857-1.9429 5.9934-6.4741 8.9411-8.606 1.4396-1.0412 2.6175-2.0066 2.6175-2.1453 0-0.33952-0.87256-0.32235-1.085 0.02135-0.09298 0.15044-1.5674 1.1043-3.2764 2.1197-7.2164 4.2876-13.437 10.018-13.437 12.378 0 0.43336 0.37303 0.49689 2.4552 0.41817l2.4552-0.09283 0.23861-1.403zm46.54-29.089c0.1985-0.07149 1.404-2.2048 2.6789-4.7407 2.6181-5.2076 2.6186-5.166-0.07066-6.1331-1.4578-0.5242-3.0976-1.9197-3.5476-3.019-0.29035-0.70926-1.3181 0.73799-2.443 3.4403-0.90617 2.1767-0.97906 2.5721-0.66652 3.6153 0.49428 1.6497 0.45837 1.806-0.52308 2.2758-0.5299 0.25363-1.0234 0.85482-1.2533 1.527-0.38947 1.1383-0.54587 3.5735-0.24858 3.8708 0.15556 0.15557 5.2784-0.54977 6.0739-0.8363zm41.98-11.929c0.56362-0.34365 2.2257-1.823 3.6934-3.2875 3.7498-3.7414 4.1575-4.8366 4.1621-11.182 0.00381-5.2707-0.30897-6.462-2.385-9.0831-1.6139-2.0378-1.767-1.7869-2.0033 3.2829-0.22113 4.7437-0.36274 5.6147-1.7955 11.044-0.48432 1.8354-0.97797 3.7985-1.097 4.3623s-0.63229 1.7795-1.1406 2.7015c-0.89526 1.6239-1.1869 2.7899-0.69728 2.7874 0.13109-6.5e-4 0.69951-0.28236 1.2631-0.62601zm1.0054-11.212c1.9355-6.0317 0.79412-16.135-2.1448-18.985-3.396-3.2933-11.438-8.5358-11.741-7.6535-0.05288 0.1542 0.54857 1.1875 1.3366 2.2961 4.3995 6.19 4.2739 5.9867 7.5294 12.188 1.7426 3.3197 3.7783 9.2294 3.7884 10.998 0.00606 1.0591 0.33835 2.1893 0.64372 2.1893 0.14086 0 0.40526-0.46482 0.58756-1.0329zm9.1865-1.975-0.09585-1.2826-0.39817 1.6951c-0.21901 0.93231-0.30205 1.8506-0.18459 2.0407 0.34325 0.55536 0.78429-1.0391 0.67861-2.4532zm0.38377-3.6663c0-0.32897-0.14404-0.68714-0.32008-0.79593-0.40846-0.25245-0.76111 0.64027-0.51074 1.2928 0.24441 0.63683 0.83082 0.28612 0.83082-0.49688zm-130.09-4.0886c0.18749-0.74677-0.06696-16.537-0.26938-16.717-0.05822-0.05162-2.2512-0.14694-4.8732-0.21181l-4.7673-0.11794-0.09687 1.5096c-0.0925 1.4416-0.05931 1.5096 0.73599 1.5096 1.2701 0 2.0624 0.55928 2.0624 1.4558 0 0.97415-1.3127 2.358-2.2368 2.358-0.82962 0-0.66809 0.7457 0.19729 0.91077 0.80203 0.15298 1.0752 0.61984 1.0812 1.8474 0.00544 1.1296-0.68978 2.0091-1.5882 2.0091-0.9384 0-0.9952 0.48129-0.14413 1.2213 0.43402 0.37738 0.78371 1.0285 0.78371 1.4594 0 0.65917-0.20244 0.81798-1.326 1.0402-1.4658 0.28987-1.744 0.64372-1.1414 1.4516 0.56858 0.76228 3.2768 1.145 7.6458 1.0804 3.6552-0.054 3.7529-0.07403 3.9369-0.80688zm112.39-4.7309c-0.10717-0.3059-1.0681-2.1744-2.1353-4.1523-2.7342-5.0672-5.3589-8.4289-9.0121-11.543-7.8327-6.6764-8.7533-7.6191-9.9264-10.164-0.93816-2.0354-1.0201-2.4462-0.83952-4.2088 0.29163-2.8465 1.1138-4.6972 3.1987-7.2001 1.0175-1.2215 1.9386-2.2236 2.0469-2.227s0.76906-0.51025 1.4683-1.1264c2.8478-2.5096 6.6477-4.7006 14.603-8.4199 3.6551-1.7089-1.3143-0.70556-7.9286 1.6008-7.0776 2.4679-11.954 4.9198-18.528 9.3156-6.7767 4.5315-8.9856 8.1063-8.5729 13.874 0.29933 4.1835 2.9569 8.01 7.6821 11.061 0.87977 0.56811 1.4614 1.0332 1.2925 1.0336-0.35985 7.4e-4 8.3924 4.4207 12.088 6.1045 8.3758 3.8163 10.356 4.7423 12.03 5.626 2.1332 1.126 2.8196 1.2413 2.5338 0.42547zm-124.13-0.47673c-0.07284-0.2185-0.32312-0.39727-0.55619-0.39727s-0.48335 0.17877-0.55619 0.39727c-0.07877 0.23633 0.14655 0.39728 0.55619 0.39728s0.63496-0.16095 0.55619-0.39728zm154.36-17.05c0.0969-0.15677-0.38882-0.96875-1.0794-1.8044-1.6014-1.938-2.0479-3.8228-1.6001-6.7553 0.46094-3.0184 1.1457-4.7079 2.7916-6.8873 1.2919-1.7107 3.2859-3.6216 4.4778-4.2913 0.72943-0.40978 0.1074-0.90353-1.4284-1.1338-3.0322-0.45471-7.4379 1.1895-9.9688 3.7204-1.1304 1.1304-2.1836 3.8662-2.4427 6.3449-0.17534 1.6778-0.09013 2.0833 0.83068 3.9538 0.90262 1.8335 1.889 3.0373 4.3261 5.28 0.48515 0.44646 2.9356 1.6176 3.8564 1.8432 0.03337 0.00818 0.13997-0.1134 0.23684-0.27017zm31.707-5.9007c1.4165-1.4165 2.7644-3.8051 2.3698-4.1996-0.11476-0.11475-0.25575-0.14905-0.31334-0.07621-0.24825 0.31405-3.8421 4.9365-4.1182 5.297-0.21167 0.27628-0.16006 0.39728 0.16946 0.39728 0.26061 0 1.1121-0.6383 1.8923-1.4184zm5.6572-76.765c0-0.17481-0.14301-0.31782-0.31782-0.31782s-0.31782 0.14301-0.31782 0.31782 0.14302 0.31782 0.31782 0.31782 0.31782-0.14302 0.31782-0.31782zm-19.579 166.68c-0.11203-0.44631-0.11126-1.5081 0.00169-2.3596 0.15757-1.1878 0.46246-1.8052 1.31-2.6528 1.1236-1.1236 1.421-2.3138 0.74649-2.9883-0.62953-0.62955 0.00109-1.7987 1.6754-3.1061 1.6298-1.2726 10.082-9.9642 11.436-11.759 0.3954-0.5244 1.156-1.4674 1.6902-2.0955s1.1889-1.4147 1.455-1.748c0.68078-0.85294 4.0943-5.9215 5.6821-8.4371l1.332-2.1103 1.654 0.06175c1.3079 0.04882 2.0365 0.30959 3.4815 1.246 1.2156 0.7878 1.8275 1.396 1.8275 1.8167 0 1.2831-6.6109 10.636-11.895 16.828-5.9766 7.0041-18.209 18.106-19.961 18.115-0.1278 6.6e-4 -0.32399-0.36397-0.43599-0.81027zm-226.41-47.577c-0.18389-0.2185-1.3236-2.042-2.5328-4.0522s-3.5014-5.5857-5.094-7.9455-3.6781-5.4781-4.6345-6.9296-2.1633-2.8816-2.682-3.1782-1.1143-0.9517-1.3237-1.4558c-0.32979-0.79408-0.30131-0.97465 0.213-1.3507 0.32653-0.23876 0.91579-0.43411 1.3095-0.43411 1.1637 0 1.6792-1.0796 1.4723-3.0836-0.19604-1.8994 0.06188-2.3055 1.4702-2.3145 0.75257-0.00481 0.75855-0.03058 0.57276-2.468-0.25767-3.3806-0.70332-4.6919-1.9936-5.866-0.60654-0.55195-1.6076-1.7641-2.2246-2.6936-1.0339-1.5576-1.2183-1.6901-2.353-1.6901-1.5046 0-2.1114-0.67641-3.3498-3.7342-0.8248-2.0365-1.11-4.3866-0.62712-5.1679 0.12031-0.19467 0.56497-0.48558 0.98812-0.64646 0.99969-0.38009 1.5499-1.7739 1.0947-2.773-0.48489-1.0642-0.43056-1.9142 0.4728-7.3966 1.0742-6.519 4.1989-17.786 6.0688-21.882 1.122-2.458 0.92773-2.6765-1.697-1.909-2.9355 0.8584-7.3926 0.93196-9.2347 0.15243-1.4874-0.62942-2.9387-2.1311-2.9387-3.0408 0-0.32063 0.30629-1.3834 0.68065-2.3616 0.52135-1.3624 1.2128-2.2841 2.9545-3.9386 1.9092-1.8136 2.8317-2.4043 5.7526-3.6834 5.357-2.3461 8.0619-2.8329 14.608-2.6292 7.7597 0.24151 11.1 1.2878 17.017 5.3303 2.6268 1.7946 3.7946 2.8974 8.9588 8.46 3.6055 3.8836 6.9103 10.501 6.9165 13.848 0.00268 1.4551-1.0131 3.5624-1.962 4.0702-1.2841 0.68726-3.8698 0.41808-6.0397-0.62874-2.1519-1.0382-3.5168-2.1845-5.4453-4.5734-1.0367-1.2842-1.378-1.5027-2.3468-1.5027-2.6484 0-5.109-1.4355-6.653-3.8814-0.5876-0.93084-0.93158-1.1994-1.3286-1.0372-1.7996 0.73523-8.9049 0.7147-12.533-0.0362-1.3826-0.28613-1.0184 0.33147 0.63564 1.0778 1.9523 0.88097 5.6518 1.1789 8.7699 0.70623 2.8685-0.43481 3.7045-0.25874 3.7045 0.7802 0 1.6608 2.5352 2.793 6.7185 3.0003 0.28654 0.01419 0.85492 0.29623 1.2631 0.62673l0.7421 0.60092-2.1071 2.2336c-2.6926 2.8543-4.0183 5.2594-5.7009 10.342l-1.352 4.0842 0.42299 2.2722c0.23264 1.2497 0.48548 2.7728 0.56187 3.3846 0.12131 0.97142 0.36291 1.2341 1.9068 2.0733 1.0187 0.55368 1.8842 1.2754 2.0424 1.703 0.23311 0.63016 0.07593 0.92364-1.042 1.9455-1.2321 1.1263-1.2949 1.2654-0.9793 2.1708 0.40236 1.1542 0.18334 1.4001-1.7614 1.9774-0.7429 0.22053-1.3507 0.4926-1.3507 0.60462s0.50057 0.38467 1.1124 0.6059c1.3047 0.4718 1.4736 1.3658 0.46148 2.4432-0.62567 0.666-0.6302 0.73621-0.1169 1.8126 0.37384 0.78396 0.46805 1.4712 0.31413 2.2916-0.23974 1.2779-1.054 1.7992-3.5191 2.2527-1.4316 0.26338-1.7432 0.56853-1.5062 1.4749 0.15031 0.57479 0.35373 0.61035 2.4544 0.42915 2.5815-0.22269 2.8134-0.09013 3.1543 1.8024 0.11697 0.64937 0.3381 1.2582 0.49142 1.353s1.2436 0.23529 2.4228 0.3123c1.2224 0.07982 2.3322 0.32816 2.5817 0.57769 0.84644 0.84644 1.1402 4.6015 0.93811 11.991-0.20285 7.4165-0.60168 11.132-1.3153 12.255-0.29677 0.46671-1.0228 0.76597-2.5337 1.0444-1.1648 0.21462-3.7522 0.88563-5.7498 1.4911-3.9635 1.2014-4.7156 1.3028-5.2198 0.70366zm331.14-1.2284c-1.0243-1.2096-1.3201-1.349-4.4346-2.0889-3.6326-0.86299-6.0099-0.85578-8.4934 0.02577-1.5551 0.55201-2.1982 0.11232-1.1167-0.76348 1.7802-1.4415 10.564-1.967 14.186-0.84873 1.9937 0.61554 3.8058 2.086 3.6314 2.9468-0.0566 0.27945-0.68172 0.84932-1.3891 1.2664l-1.2862 0.75828-1.0975-1.2961zm-89.928-10.683c-2.6775-0.35475-2.846-0.79042-0.80522-2.083 3.7585-2.3806 8.7856-4.13 13.004-4.5253 1.3316-0.12478 2.4211-0.34467 2.4211-0.48865s-0.60668-0.38176-1.3482-0.5284c-3.1859-0.63003-0.98352-2.3413 3.0672-2.3833 2.1364-0.02214 4.3196 0.62126 4.3196 1.2729 0 0.42018-1.2185 1.0058-2.5287 1.2153-0.70683 0.11303-1.2852 0.30449-1.2852 0.42548s1.2886 0.39153 2.8636 0.60124c4.6465 0.61863 8.8938 2.1178 12.153 4.2895 1.6657 1.11 1.8821 1.6379 0.78406 1.9135-0.39937 0.10024-7.618 0.1764-16.041 0.16925s-15.426 0.04093-15.562 0.10686-0.60459 0.07249-1.0416 0.01458zm78.677-0.80132c0.26976-0.88528 0.54477-1.201 4.1949-4.8154 2.5087-2.4842 2.9398-3.0627 2.9398-3.9449 0-1.8829-2.161-5.2047-4.299-6.6084-0.53874-0.3537-0.92842-0.34714-2.3836 0.04012-2.3421 0.62327-3.8062 0.57786-4.75-0.14734-0.66049-0.50755-0.78991-0.88392-0.81263-2.3632-0.01809-1.1767-0.20528-1.9565-0.56512-2.3541-0.84152-0.92987-0.65007-1.5226 0.9029-2.7951 0.79255-0.64942 1.3927-1.3256 1.3337-1.5026s-0.77894-0.51768-1.5999-0.75705c-1.6275-0.47455-1.7206-0.69479-1.1547-2.7325 0.28759-1.0357 0.23929-1.3579-0.34553-2.3042l-0.67988-1.1001 1.3292-1.1918c1.7047-1.5285 2.059-2.2557 2.5164-5.1646 0.20614-1.311 0.59419-3.4976 0.86234-4.859s0.41253-2.6709 0.32084-2.9099-0.56972-0.52431-1.0622-0.63407c-0.58237-0.12979-1.3122-0.76552-2.0873-1.8182-0.98289-1.3349-1.1918-1.8834-1.1918-3.1287 0-1.6706 0.53439-3.1942 1.5916-4.5381 1.5996-2.0333 6.612-3.5321 10.149-3.0347 0.9719 0.1367 3.9124 0.16789 6.5344 0.06931 5.8673-0.22059 9.6466 0.43367 13.65 2.3629 3.6634 1.7656 5.5345 3.3829 7.6742 6.6335 1.0133 1.5394 2.1789 3.2115 2.5901 3.7156l0.74768 0.91664-0.70341 0.74878c-0.77919 0.82936-0.6577 1.3301 0.74768 3.0826 1.4489 1.8067 0.74906 8.907-1.179 11.961-1.0282 1.6287-1.0812 2.4093-0.12923 1.8998 0.37045-0.19828 0.74666-0.63988 0.83594-0.98131 0.10843-0.4146 0.38544-0.58887 0.83402-0.52467 0.53222 0.07617 0.73115 0.42264 0.95792 1.6686 0.27712 1.5224 0.2544 1.5991-0.71312 2.4068-0.54965 0.45886-0.99935 0.93113-0.99935 1.0495 0 0.42614 2.1559 0.2044 2.5426-0.26151 0.42576-0.51303 1.1385-0.63086 1.3867-0.22925 0.08411 0.13611-0.03973 1.1709-0.27525 2.2995-0.35749 1.7129-0.63205 2.2366-1.6619 3.1691-0.67845 0.61441-1.4831 1.2601-1.788 1.4349-0.53898 0.30903-0.6673 0.92466-0.46277 2.2212 0.08688 0.55086-0.13445 0.65774-1.7213 0.83135-1.286 0.14069-2.1585 0.45664-2.9698 1.0755-0.98005 0.74752-1.343 0.84684-2.4696 0.67584-0.72639-0.11025-1.597-0.23511-1.9346-0.27745-0.38426-0.04819-0.79802 0.24468-1.106 0.78277-0.47087 0.8225-0.45215 0.90155 0.43179 1.8241 0.50815 0.53042 0.83333 1.055 0.72266 1.1657s-1.1262-0.04908-2.2567-0.35508c-2.3374-0.63272-3.2327-0.50386-4.6222 0.66532-0.7401 0.62275-0.97796 1.0866-0.97796 1.907v1.0841h-2.6284c-4.3508 0-9.7093 1.9172-14.054 5.0282-2.1119 1.5123-2.5204 1.6255-2.2119 0.6131zm11.729-27.045c0.43045-0.31475 0.52857-0.64955 0.37252-1.2713-0.2295-0.91445-0.85373-1.063-2.2449-0.53405-0.94507 0.35932-1.0283 0.83471-0.28925 1.6514 0.6236 0.68907 1.3582 0.74138 2.1616 0.15393z"/>
 </g>
</svg>
